<svg xmlns="http://www.w3.org/2000/svg" viewBox="0 0 1364 960"><path fill="#4381D1" d="M188.726,608.776c-3.105-3.452-1.84-9.305,1.631-12.375c3.471-3.07,8.397-3.908,13.046-3.949  c7.521-0.066,14.378,1.476,21.471,3.404c-5.378-4.443-10.594-9.081-15.646-13.866c-3.341-3.164-6.615-6.406-9.819-9.718  c-7.811,6.932-17.728,11.472-28.086,12.82c-3.926,0.511-8.459,0.354-11.099-2.596c-3.085-3.447-1.819-9.3,1.637-12.373  c3.457-3.073,8.357-3.917,12.982-3.964c7.766-0.079,14.818,1.578,22.159,3.597c-9.758-10.317-18.795-21.326-26.808-33.037  c-8.732,5.445-19.083,8.272-29.371,7.965c-3.957-0.117-8.409-0.991-10.548-4.322c-2.498-3.892-0.321-9.471,3.58-11.956  c3.9-2.487,8.872-2.543,13.447-1.856c7.412,1.114,13.911,3.716,20.583,6.735c-8.253-12.477-15.669-26.175-18.768-40.856  c-0.065-0.305-0.115-0.614-0.178-0.92c-9.496,4.253-20.272,5.618-30.525,3.826c-3.9-0.681-8.182-2.181-9.823-5.783  c-1.917-4.209,1.034-9.42,5.25-11.324c4.215-1.904,9.144-1.25,13.573,0.083c7.804,2.349,14.289,6.286,21.032,10.647  c-3.117-17.055-3.102-34.758-6.8-51.679c-9.614,4.427-20.582,5.875-31.01,4.052c-3.9-0.681-8.182-2.181-9.823-5.784  c-1.918-4.209,1.035-9.419,5.25-11.323c4.215-1.904,9.144-1.25,13.573,0.083c8.014,2.412,14.636,6.5,21.577,11  c-0.999-4.212-2.244-8.372-3.852-12.456c-3.255-8.27-8.251-15.762-14.387-22.292c-8.238,7.028-18.69,11.43-29.479,12.377  c-3.944,0.346-8.467-0.001-10.981-3.059c-2.937-3.573-1.426-9.368,2.156-12.293c3.583-2.925,8.514-3.563,13.137-3.416  c8.478,0.27,16.017,2.571,24,5.175c-10.121-10.331-23.121-18.116-36.547-22.528c-8.196,5.419-17.928,8.506-27.753,8.741  c-3.958,0.094-8.45-0.539-10.764-3.751c-2.704-3.753-0.828-9.44,2.934-12.132c3.762-2.691,8.724-3.014,13.328-2.572  c7.345,0.704,13.883,2.897,20.596,5.5c0.264-0.045,0.553-0.036,0.866,0.059c11.511,3.5,22.252,9.358,31.654,16.844  c2.073,1.651,4.096,3.385,6.054,5.194c-4.049-8.658-5.715-18.429-4.689-27.935c0.425-3.936,1.642-8.307,5.129-10.181  c4.075-2.189,9.467,0.416,11.642,4.497c2.176,4.082,1.845,9.043,0.805,13.551c-1.941,8.406-5.755,15.453-9.94,22.92  c3.937,3.975,7.5,8.312,10.392,13.092c4.381,7.239,7.188,15.017,9.121,23.06c0.189-9.857,3.188-19.656,8.605-27.896  c2.175-3.308,5.252-6.642,9.21-6.717c4.624-0.088,8.233,4.691,8.306,9.316c0.073,4.624-2.486,8.888-5.468,12.424  c-5.716,6.774-12.537,11.37-19.892,16.246c2.804,13.357,3.491,27.338,5.144,40.739c0.521,4.219,1.156,8.391,2.013,12.508  c-0.336-10.7,2.678-21.487,8.548-30.442c2.171-3.311,5.243-6.649,9.201-6.729c4.624-0.094,8.239,4.681,8.318,9.305  c0.079,4.624-2.473,8.892-5.452,12.431c-5.837,6.936-12.832,11.595-20.373,16.607c0.962,4.378,2.199,8.689,3.871,12.916  c3.058,7.731,6.992,15.105,11.345,22.178c1.157,1.881,2.351,3.741,3.568,5.585c-1.227-9.63,0.248-19.603,4.269-28.443  c1.639-3.604,4.166-7.371,8.065-8.055c4.556-0.799,8.858,3.367,9.642,7.925c0.784,4.558-1.086,9.166-3.49,13.118  c-4.44,7.303-10.205,12.762-16.454,18.478c7.83,11.44,16.754,22.163,26.296,32.22c-3.711-9.428-4.649-19.939-2.603-29.865  c0.799-3.877,2.428-8.112,6.079-9.643c4.265-1.789,9.384,1.319,11.159,5.59c1.776,4.271,0.973,9.178-0.493,13.565  c-2.784,8.324-7.363,15.064-12.341,22.233c1.276,1.323,2.559,2.638,3.853,3.939c7.109,7.134,14.567,13.973,22.38,20.375  c-3.473-9.237-4.309-19.462-2.315-29.131c0.799-3.878,2.428-8.112,6.079-9.644c4.265-1.789,9.384,1.319,11.16,5.59  c1.775,4.271,0.972,9.178-0.495,13.565c-2.707,8.096-7.111,14.692-11.929,21.642c8.994,7.191,18.452,13.794,28.389,19.582  c2.07,1.206,0.058,4.333-2.008,3.13c-10.036-5.845-19.573-12.532-28.648-19.799c-7.855,6.956-17.843,11.506-28.284,12.846  C195.943,611.893,191.384,611.73,188.726,608.776z"/><path fill="#195494" d="M783.558,216.668c1.249-2.495,0.671-5.661-1.039-7.86c-1.71-2.199-4.386-3.501-7.129-3.993  c-2.743-0.492-5.567-0.242-8.319,0.204c-4.554,0.738-9.153,2.092-12.91,4.704c1.327-6.639,3.17-13.177,5.502-19.543  c0.212-0.579,0.435-1.154,0.654-1.73c4.407,1.977,8.814,3.954,13.221,5.931c2.94,1.319,5.972,2.661,9.193,2.787  c3.222,0.126,6.721-1.252,8.165-4.138c1.249-2.495,0.671-5.661-1.039-7.86c-1.709-2.2-4.386-3.501-7.129-3.993  c-2.743-0.492-5.567-0.242-8.319,0.204c-4.697,0.761-9.444,2.177-13.263,4.953c2.804-6.983,6.192-13.729,10.121-20.146  c4.542,1.832,9.084,3.664,13.626,5.496c2.989,1.205,6.07,2.429,9.294,2.432c3.224,0.002,6.668-1.509,8.001-4.448  c1.152-2.54,0.453-5.682-1.34-7.814s-4.517-3.33-7.277-3.716c-2.759-0.387-5.572-0.029-8.305,0.522  c-4.375,0.883-8.774,2.34-12.364,4.928c2.948-4.576,6.17-8.975,9.66-13.155c1.033-1.238,2.097-2.448,3.175-3.645  c4.733,1.73,9.467,3.46,14.2,5.19c3.027,1.106,6.146,2.229,9.369,2.125c3.222-0.103,6.615-1.727,7.851-4.708  c1.068-2.577,0.266-5.693-1.596-7.765c-1.862-2.072-4.625-3.18-7.395-3.475c-2.771-0.295-5.57,0.154-8.284,0.795  c-3.877,0.915-7.755,2.292-11.035,4.499c3.802-3.927,7.854-7.609,12.133-11.016c4.861-0.714,9.722-1.429,14.584-2.143  c3.19-0.469,6.47-0.968,9.257-2.593c2.787-1.626,5.001-4.667,4.671-7.875c-0.286-2.773-2.474-5.13-5.098-6.065  c-2.624-0.934-5.583-0.592-8.162,0.467c-2.58,1.06-4.829,2.788-6.913,4.643c-3.84,3.418-7.32,7.509-8.922,12.363  c-0.015,0.01-0.03,0.017-0.044,0.028c-4.561,3.618-8.866,7.549-12.89,11.75c1.679-3.791,2.302-8.073,2.43-12.252  c0.085-2.787-0.032-5.621-0.875-8.277c-0.843-2.657-2.48-5.143-4.881-6.554c-2.402-1.411-5.615-1.574-7.926-0.013  c-2.674,1.806-3.587,5.456-3.045,8.634c0.542,3.179,2.265,6.012,3.953,8.757c2.571,4.181,5.143,8.362,7.714,12.543  c-4.771,5.285-9.11,10.96-12.972,16.945c0.855-4.28,0.399-8.823-0.562-13.119c-0.609-2.72-1.426-5.435-2.902-7.798  c-1.476-2.363-3.679-4.364-6.356-5.134c-2.678-0.77-5.832-0.13-7.684,1.956c-2.143,2.413-2.122,6.173-0.808,9.117  c1.314,2.944,3.686,5.259,6.003,7.499c3.528,3.408,7.055,6.817,10.583,10.226c-0.117,0.191-0.238,0.38-0.354,0.572  c-3.802,6.29-7.087,12.887-9.826,19.701c0.338-4.879-1.132-9.797-3.158-14.284c-1.147-2.54-2.496-5.032-4.42-7.046  c-1.924-2.015-4.487-3.527-7.266-3.738c-2.779-0.211-5.739,1.054-7.132,3.472c-1.611,2.796-0.829,6.473,1.054,9.089  c1.883,2.615,4.675,4.402,7.398,6.124c4.279,2.707,8.558,5.414,12.837,8.121c-0.037,0.095-0.073,0.192-0.109,0.288l-0.14,0.031  c0.037,0.017,0.073,0.033,0.11,0.049c-2.555,6.675-4.584,13.549-6.046,20.549c-1.444-4.149-4.137-7.871-7.144-11.129  c-1.926-2.086-4.032-4.061-6.541-5.391c-2.509-1.33-5.474-1.97-8.229-1.284c-2.755,0.686-5.211,2.857-5.78,5.639  c-0.658,3.218,1.28,6.52,3.942,8.444c2.662,1.924,5.937,2.755,9.124,3.547c4.527,1.125,9.054,2.25,13.581,3.374  c0.129,0.058,0.258,0.116,0.388,0.174c-1.405,7.751-2.107,15.622-2.065,23.499c0.004,0.832,1.305,0.984,1.3,0.141  c-0.041-7.745,0.639-15.476,1.996-23.088c4.181,1.876,8.362,3.752,12.542,5.627c2.94,1.319,5.971,2.661,9.193,2.787  C778.614,220.931,782.114,219.553,783.558,216.668z"/><path fill="#4381D1" d="M768.057,303.968c-0.24,6.847,2.263,14.133,2.263,14.133s3.81,18.839,12.01,34.043  c2.939,5.355,7.359,13.594,16.106,21.019c0.948,0.749,1.895,1.497,2.845,2.246c0.957,0.723,1.932,1.395,2.97,1.973  c0.757,0.476,1.513,0.953,2.287,1.377c0.4,0.261,0.782,0.486,1.199,0.695c13.16,7.336,26.149,7.996,31.135,8.086  c4.789-0.011,21.993-0.496,37.941-11.879c9.859-7.055,21.311-19.569,17.728-26.345c-0.763-1.263-1.905-2.197-2.09-4.091  c-0.503-3.75,3.145-6.377,7.644-10.321c8.346-7.283,12.57-10.863,13.218-14.747c0.355-1.786-0.422-5.896-1.92-14.037  c-1.033-5.653-1.311-5.927-0.989-7.058c1.779-5.565,10.882-3.465,18.548-9.428c5.845-4.618,9.697-13.031,7.909-20.204  c-1.121-4.205-3.309-4.735-6.346-12.387c-2.134-5.412-3.177-8.226-2.993-11.147c0.741-11.365,20.012-12.757,19.789-22.178  c-0.117-4.655-4.921-9.262-9.506-13.675c-4.748-4.442-6.867-4.598-8.577-6.609c-9.926-11.389,25.37-47.023,20.288-51.905  c-3.886-3.695-34.376,8.438-50.025,23.728c-2.382,2.418-6.912,7.249-14.132,7.803c-8.319,0.708-11.847-4.947-17.245-3.329  c-2.698,0.882-3.74,2.884-12.229,21.805c-2.679,6.052-4.52,10.26-7.731,10.319c-3.136,0.085-5.202-3.91-9.66-3.692  c-0.715-0.027-2.24,0.177-4.33,1.627c-7.021,4.657-10.603,16.098-12.237,21.744c-3.318,11.275-4.037,17.281-6.716,17.386  c-2.666-0.006-3.735-5.642-8.575-6.694c-3.444-0.664-6.819,1.452-8.659,3.253c-2.584,2.577-2.787,5.868-2.41,15.664  c0.37,10.054,0.772,11.592,0.761,16.925c0.133,9.186,0.218,17.542-3.467,18.589c-3.33,0.944-6.248-4.868-12.908-4.982  c-0.285-0.015-5.359-0.021-8.659,3.254C769.092,297.09,768.169,300.527,768.057,303.968z"/><path fill="#98C3FA" d="M790.011,314.302c-1.948,5.73,3.203,10.65,6.198,14.925c2.847,4.065,5.358,8.366,7.497,12.845  c4.076,8.539,6.718,17.709,7.961,27.084c0.021-0.034,0.036-0.066,0.058-0.1c5.477-9.537,11.788-18.657,17.823-27.732  c6.221-9.356,12.301-18.878,17.139-29.053c4.025-8.496,6.671-17.344,8.992-26.34c0.002-0.005,0.003-0.01,0.004-0.015  c-4.064-9.624-11.625-16.991-16.456-26.139c-4.232-8.015-5.575-18.755,1.488-25.655c0.628-0.614,1.5,0.436,0.874,1.048  c-7.468,7.296-4.496,18.663,0.285,26.506c4.596,7.54,10.572,14.119,14.338,22.148c0.004-0.015,0.008-0.03,0.013-0.046  c0.268-1.063,0.536-2.127,0.804-3.19c2.159-8.706,4.5-17.433,8.83-25.325c2.967-5.483,6.41-10.677,10.005-15.731  c-3.28-9.228-3.975-19.727-1.195-29.171c0.247-0.843,1.53-0.376,1.283,0.463c-2.59,8.801-2.021,18.635,0.89,27.314  c0.182-0.269,0.379-0.509,0.562-0.78c8.691-12.09,18.042-23.766,27.942-34.868c0.868-0.963,1.748-1.95,2.643-2.903  c0.577-0.633,1.688,0.146,1.111,0.778c-9.535,10.335-18.414,21.341-26.806,32.61c-4.456,5.99-8.776,12.087-12.682,18.48  c-0.882,1.48-1.73,2.943-2.475,4.443c0,0.002-0.003,0.004-0.003,0.006c4.963,1.355,9.535-1.568,13.712-3.872  c3.679-2.03,7.599-3.538,11.711-4.426c8.123-1.756,16.681-1.094,24.437,1.884c0.818,0.314,0.357,1.598-0.464,1.283  c-8.233-3.161-17.325-3.611-25.841-1.312c-4.387,1.184-8.192,3.281-12.159,5.421c-3.712,2.002-7.791,3.5-12.006,2.278  c-0.017-0.005-0.016-0.021-0.033-0.027c-0.001,0.003-0.003,0.006-0.005,0.009c-2.415,4.756-4.306,9.671-5.818,14.897  c-3.061,10.643-4.982,21.581-8.934,31.96c-3.851,10.096-9.188,19.568-14.946,28.685c-0.486,0.782-0.998,1.554-1.508,2.327  c-0.001,0.003-0.004,0.005-0.006,0.008c11.663-0.344,23.932-0.814,34.26-6.888c2.389-1.406,4.586-3.111,6.53-5.088  c1.881-1.914,3.557-4.066,5.76-5.634c4.115-2.93,9.21-2.839,14.038-2.609c0.879,0.042,0.77,1.402-0.106,1.36  c-2.762-0.131-5.569-0.261-8.296,0.294c-2.798,0.57-5.048,1.99-7.067,3.98c-1.983,1.953-3.723,4.106-5.88,5.88  c-1.943,1.597-4.081,2.959-6.319,4.104c-10.257,5.246-22.004,5.639-33.281,5.97c-0.191,0.006-0.313-0.074-0.412-0.172  c-0.005,0.006-0.009,0.012-0.013,0.018c-7.548,11.661-15.746,23.029-22.529,35.141c-0.02,0.036-0.041,0.075-0.062,0.113  c-0.039,0.121-0.077,0.228-0.169,0.305c-0.006,0.013-0.015,0.029-0.022,0.041c-1.401,2.511-2.75,5.041-3.971,7.616  c-0.417-0.209-0.799-0.434-1.199-0.695c1.266-2.617,2.624-5.173,4.033-7.709c0.003-0.006,0.007-0.012,0.011-0.018  c-1.207-10.574-4.269-20.878-9.092-30.371c-2.459-4.838-5.379-9.387-8.646-13.717c-2.85-3.779-5.789-8.183-4.116-13.103  C789.011,313.007,790.294,313.47,790.011,314.302z"/><path fill="#8FB4E6" d="M1246.373,705.389c-0.036,0.606-0.315,1.151-0.727,1.43l-2.279,1.527l-105.158,70.247l-2.315,1.551  l-0.618,0.412l-137.962,92.168h-5.877l0.509-0.339l0.97-0.654l139.44-93.138l2.315-1.539l0.618-0.412l107.17-71.604l-107.182-98.167  l-2.327-2.133l-70.489-64.564l-2.339-2.145c-0.327-0.303-0.533-0.776-0.57-1.297c-0.024-0.497,0.109-0.969,0.364-1.333l5.15-7.671  l68.429-101.765l1.782-2.654l36.826-54.773l0.449-0.666c-0.242-0.4-0.545-0.921-0.909-1.527  c-4.762-7.998-19.667-33.07-36.353-61.159c-0.363-0.594-0.715-1.188-1.066-1.781l-0.63-1.066l-15.705-26.417l-2.326-3.914  c-0.461-0.763-0.352-1.854,0.23-2.448c0.594-0.582,1.43-0.448,1.891,0.315l1.09,1.83l16.505,27.798l1.054,1.769  c0.218,0.364,0.424,0.715,0.642,1.078c13.56,22.806,25.992,43.709,32.827,55.221c3.502,5.865,5.538,9.294,5.538,9.294  c0.388,0.666,0.376,1.587-0.048,2.218l-2.339,3.478l-35.893,53.391l-1.781,2.654l-71.822,106.819l-0.582,0.872l0.339,0.315  l72.065,65.994l2.327,2.133l104.019,95.282l4.181,3.829C1246.192,704.202,1246.398,704.783,1246.373,705.389z"/><path fill="#8FB4E6" d="M1279.116,872.724h-5.865l-137.973-92.168l-0.606-0.412l-2.315-1.551l-105.171-70.247l-2.278-1.527  c-0.412-0.279-0.691-0.824-0.727-1.43c-0.024-0.606,0.182-1.188,0.57-1.539l4.18-3.829l104.02-95.282l2.327-2.133l72.064-66.006  l0.327-0.303l-0.569-0.848l-71.822-106.843l-1.782-2.642l-35.893-53.403l-2.339-3.478c-0.218-0.315-0.34-0.727-0.34-1.151  c0-0.388,0.109-0.776,0.291-1.091c0.17-0.267,2.181-3.66,5.538-9.294c6.847-11.524,19.28-32.415,32.839-55.209  c0.206-0.351,0.424-0.715,0.63-1.066c0.351-0.582,0.703-1.175,1.054-1.769c5.453-9.173,11.052-18.601,16.516-27.81  c0.363-0.618,0.727-1.224,1.09-1.83c0.448-0.763,1.285-0.897,1.879-0.315c0.582,0.582,0.691,1.684,0.242,2.448  c-0.776,1.297-1.539,2.593-2.327,3.902v0.012c-5.223,8.785-10.542,17.728-15.705,26.441c-0.218,0.351-0.424,0.703-0.63,1.054  c-0.351,0.594-0.715,1.188-1.054,1.781c-16.711,28.077-31.615,53.149-36.378,61.159c-0.363,0.606-0.666,1.115-0.909,1.515  l0.448,0.666l36.826,54.785l1.781,2.642l68.43,101.814l5.174,7.695c0.255,0.364,0.376,0.86,0.327,1.345  c-0.049,0.497-0.255,0.933-0.557,1.224l-2.339,2.133l-70.489,64.576l-2.327,2.133l-107.17,98.167l107.182,71.604l0.606,0.412  l2.315,1.539l139.428,93.138L1279.116,872.724z"/><path fill="#2860A8" d="M1247.185,704.505l-35.359-168.668c-0.024-0.085-0.049-0.158-0.06-0.242l-74.331-354.422  c-0.266-1.26-1.151-2.133-2.157-2.133s-1.891,0.873-2.157,2.133l-18.661,89.005l-20.346,96.979  c-0.012,0.049-0.012,0.085-0.024,0.133l-35.299,168.341c-0.024,0.061-0.037,0.133-0.048,0.206l-35.372,168.668l-35.287,168.22h4.629  l0.206-0.994l34.269-163.385l0.485-2.314l1.26-6.01l33.531-159.846l0.545-2.605c0.012-0.073,0.036-0.145,0.048-0.218l0.157-0.739  l0.243-1.188l1.612-7.695l32.536-155.169l0.812-3.866c0.012-0.036,0.024-0.085,0.024-0.121l0.012-0.048l0.46-2.181l1.842-8.798  l17.135-81.626l0.885-4.217l16.505-78.73l16.516,78.717l0.885,4.205v0.012l17.122,81.662l2.302,10.967l0.037,0.158l0.812,3.866  l32.536,155.205l1.612,7.683l0.242,1.151l0.157,0.763c0.025,0.085,0.037,0.17,0.061,0.242l0.533,2.557l33.53,159.858l1.26,6.01  l0.484,2.314l34.27,163.385l0.206,0.994h4.629L1247.185,704.505z"/><path fill="#2860A8" d="M1174.289,370.836h-78.022c-1.233,0-2.232-1.299-2.232-2.902c0-1.603,0.999-2.902,2.232-2.902h78.013  c1.233,0,2.237,1.299,2.237,2.902C1176.517,369.537,1175.522,370.836,1174.289,370.836z"/><path fill="#2860A8" d="M1209.666,539.504H1060.89c-1.233,0-2.232-1.299-2.232-2.902s0.999-2.902,2.232-2.902h148.767  c1.233,0,2.237,1.299,2.237,2.902S1210.899,539.504,1209.666,539.504z"/><path fill="#2860A8" d="M1245.034,708.171h-219.512c-1.233,0-2.232-1.299-2.232-2.902c0-1.603,0.999-2.902,2.232-2.902h219.512  c1.233,0,2.232,1.299,2.232,2.902C1247.266,706.872,1246.267,708.171,1245.034,708.171z"/><path fill="#2860A8" d="M1135.772,149.256c4.405,0,7.976,3.571,7.976,7.976c0,4.405-3.571,7.976-7.976,7.976  c-4.405,0-7.975-3.571-7.975-7.976C1127.796,152.827,1131.367,149.256,1135.772,149.256z"/><path fill="#8FB4E6" d="M1143.747,175.677c0-0.86,0.446-1.697,1.244-2.159c0.325-0.194,8.227-5.01,8.227-16.287  c0-11.379-7.552-16.656-7.873-16.875c-1.134-0.773-1.434-2.322-0.669-3.456c0.767-1.137,2.303-1.445,3.444-0.684  c0.412,0.275,10.083,6.884,10.083,21.016c0,14.234-10.277,20.347-10.715,20.6c-1.191,0.69-2.716,0.283-3.406-0.907  C1143.855,176.531,1143.747,176.102,1143.747,175.677z"/><path fill="#2860A8" d="M1155.305,185.149c0-0.86,0.446-1.697,1.244-2.159c0.525-0.31,13.026-7.867,13.026-25.632  c0-17.868-11.909-26.127-12.416-26.471c-1.139-0.77-1.439-2.317-0.677-3.456c0.766-1.14,2.306-1.448,3.448-0.686  c0.597,0.398,14.629,9.989,14.629,30.614c0,20.725-14.88,29.579-15.514,29.945c-1.192,0.69-2.716,0.283-3.406-0.907  C1155.413,186.002,1155.305,185.573,1155.305,185.149z"/><path fill="#8FB4E6" d="M1166.498,192.127c0-0.86,0.446-1.697,1.244-2.16c0.67-0.393,16.562-9.969,16.562-32.517  c0-22.651-15.121-33.107-15.765-33.542c-1.14-0.768-1.444-2.315-0.68-3.456c0.765-1.141,2.307-1.45,3.45-0.687  c0.734,0.49,17.979,12.278,17.979,37.685c0,25.51-18.272,36.381-19.05,36.832c-1.191,0.689-2.716,0.282-3.406-0.908  C1166.606,192.981,1166.498,192.552,1166.498,192.127z"/><path fill="#2860A8" d="M1177.186,201.1c0-0.86,0.446-1.697,1.244-2.159c0.857-0.501,21.108-12.673,21.108-41.371  c0-28.798-19.869-42.498-20.07-42.633c-1.141-0.767-1.446-2.315-0.682-3.456c0.765-1.142,2.308-1.451,3.451-0.688  c0.91,0.606,22.285,15.22,22.285,46.778c0,31.66-22.632,45.127-23.596,45.684c-1.191,0.69-2.716,0.283-3.406-0.907  C1177.293,201.954,1177.186,201.524,1177.186,201.1z"/><path fill="#8FB4E6" d="M1125.608,175.677c0-0.86-0.446-1.697-1.244-2.159c-0.325-0.194-8.227-5.01-8.227-16.287  c0-11.379,7.552-16.656,7.873-16.875c1.134-0.773,1.434-2.322,0.669-3.456c-0.767-1.137-2.303-1.445-3.444-0.684  c-0.412,0.275-10.083,6.884-10.083,21.016c0,14.234,10.278,20.347,10.715,20.6c1.191,0.69,2.716,0.283,3.406-0.907  C1125.5,176.531,1125.608,176.102,1125.608,175.677z"/><path fill="#2860A8" d="M1114.05,185.149c0-0.86-0.446-1.697-1.244-2.159c-0.525-0.31-13.026-7.867-13.026-25.632  c0-17.868,11.909-26.127,12.416-26.471c1.139-0.77,1.439-2.317,0.677-3.456c-0.766-1.14-2.306-1.448-3.448-0.686  c-0.597,0.398-14.629,9.989-14.629,30.614c0,20.725,14.88,29.579,15.514,29.945c1.192,0.69,2.716,0.283,3.406-0.907  C1113.942,186.002,1114.05,185.573,1114.05,185.149z"/><path fill="#8FB4E6" d="M1102.858,192.127c0-0.86-0.446-1.697-1.244-2.16c-0.67-0.393-16.562-9.969-16.562-32.517  c0-22.651,15.121-33.107,15.765-33.542c1.14-0.768,1.444-2.315,0.68-3.456c-0.765-1.141-2.307-1.45-3.45-0.687  c-0.734,0.49-17.979,12.278-17.979,37.685c0,25.51,18.272,36.381,19.05,36.832c1.191,0.689,2.716,0.282,3.406-0.908  C1102.749,192.981,1102.858,192.552,1102.858,192.127z"/><path fill="#2860A8" d="M1092.17,201.1c0-0.86-0.446-1.697-1.244-2.159c-0.857-0.501-21.108-12.673-21.108-41.371  c0-28.798,19.869-42.498,20.07-42.633c1.141-0.767,1.446-2.315,0.682-3.456c-0.765-1.142-2.308-1.451-3.451-0.688  c-0.91,0.606-22.285,15.22-22.285,46.778c0,31.66,22.632,45.127,23.595,45.684c1.192,0.69,2.716,0.283,3.406-0.907  C1092.062,201.954,1092.17,201.524,1092.17,201.1z"/><path fill="#AED8FF" d="M830.715,390.764c0,92.074-38.599,175.147-100.495,233.916c-23.195,22.009-49.643,40.616-78.586,55.013  c-0.025,0-0.025,0-0.025,0c-43.189,21.48-91.873,33.556-143.379,33.556c-150.062,0-276.148-102.486-312.149-241.278  c-6.731-25.942-10.311-53.172-10.311-81.208c0-47.776,10.385-93.107,29.018-133.9c8.421-18.429,18.531-35.927,30.129-52.315  c16.715-23.573,36.506-44.826,58.793-63.13c3.404-2.773,6.859-5.496,10.362-8.143c19.389-14.648,40.517-27.178,62.979-37.188  C417.113,78.213,461.511,68.28,508.23,68.28c38.775,0,75.962,6.832,110.376,19.388c25.414,9.253,49.315,21.607,71.275,36.582  C774.92,182.338,830.715,280.034,830.715,390.764z"/><path fill="#D6EAFF" d="M683.88,184.556c-8.446-10.538-2.521-13.059-10.815-20.32c-8.32-7.261-8.749-14.824-5.649-17.346  c3.128-2.521-1.183-8.295-1.487-13.211c-0.303-4.892-11.042-6.958-14.37-13.412c-3.353-6.454,6.655,1.563,12.127,1.563  c5.445,0,3.883-6.454,8.772-1.79c4.186,4.008,9.127,7.614,17.423,4.21c-21.96-14.975-45.861-27.33-71.275-36.582  c1.691,2.294,3.581,4.463,5.572,6.126c7.564,6.228,22.49,12.455,21.581,16.01c-0.881,3.58-19.337-2.874-23.572,1.135  c-4.236,3.983-2.219,7.337-14.471,5.774c-12.228-1.564-23.346-2.9-27.357-0.681c-4.007,2.244-10.236-1.311-14.898,6.909  c-4.665,8.218-8.901,5.344-11.119,2.899c-2.218-2.446-15.507-12.909-20.549-5.799c-5.041,7.135-8.293,19.892-15.705,21.355  c-7.438,1.487-27.608-16.892-31.591-17.8c-4.009-0.882-3.782,15.807-8.472,17.598c-4.664,1.765-17.346,0.882-13.337-7.361  c4.008-8.219-15.454,12.908-19.287,8.471c-3.858-4.463,5.622-32.045,0-30.254c-5.622,1.765-13.64,12.455-22.086,12.455  c-8.471,0-24.026-3.127-25.816-5.8c-1.765-2.672-9.631,4.312-16.161,6.682c-6.529,2.369-20.093,4.235-16.539-1.564  c3.556-5.773,8.446-0.429,15.355-4.008c6.882-3.556,11.573-11.346,10.235-14.447c-1.335-3.126,8.902-1.992,2.901-5.773  c-6.025-3.782-12.027,2.647-15.581,2.647c-1.538,0-1.009-2.799-0.657-6.153c-22.463,10.01-43.591,22.54-62.979,37.188  c3.303,1.336,7.236,1.286,11.649-1.664c14.245-9.479,22.691-14.371,24.909-12.757c2.244,1.639-14.824,9.933-12.606,11.27  c2.244,1.336,7.714-1.916,7.286,1.184c-0.454,3.127,5.168,0.757,4.589,3.429c-0.605,2.673-6.076,1.336-8.446,0.429  c-2.369-0.882-9.051-1.336-10.237-0.278c-1.109,0.984-19.716,18.33-27.506,6.53c-22.286,18.304-42.078,39.557-58.793,63.13  c0.731,5.371,2.622,8.951,7.109,4.261c10.01-10.463,21.355-19.363,21.784-16.236c0.454,3.101-8.976,10.513-5.547,11.194  c3.404,0.655,5.27-7.186,7.715-7.11c2.445,0.05,3.629,1.916,1.84,3.907c-1.765,2.017-8.9,7.437-7.866,10.766  c1.06,3.328-3.48,23.497-9.479,19.716c-6-3.782-0.555-7.11-2.345-11.775c-1.765-4.689-7.11-7.135-11.346-3.454  c-4.21,3.656-11.899,16.564-9.228,20.8c2.674,4.21-1.562,6.454,1.337,9.555c2.899,3.127-18.303,38.499-23.649,12.102  c-0.126-0.554-0.252-1.033-0.454-1.412c-18.632,40.793-29.018,86.124-29.018,133.9c0,28.036,3.579,55.265,10.311,81.208  c4.236-6.505,29.977-47.02,18.128-55.617c-12.91-9.329-19.59-50.727-14.245-74.3c5.345-23.573,10.665-54.508,16.01-54.054  c5.346,0.454-7.992,25.363-8.674,45.608c-0.655,20.245-11.346,58.492,1.337,65.4c12.683,6.908,30.784-4.741,32.549-12.758  c1.79-7.991,16.16-9.152,10.841-21.052c-5.345-11.9-4.235-17.9-3.681-20.471c0.554-2.547-12.455,6-14.673,1.336  c-2.245-4.665,4.891-7.665,0.553-13.893c-4.335-6.252,2.37-32.094,6.531-23.925c4.133,8.168-4.161,16.917,1.461,25.212  c5.648,8.294,9.933,1.916,10.237,13.337c0.302,11.421,22.842,19.287,27.152,21.228c4.287,1.916,1.337,30.986,15.556,42.986  c14.245,12.026,1.94,14.547,8.749,38.271c6.832,23.725,4.765,41.524,12.758,49.541c8.017,7.992,5.647-4.613,10.992-4.74  c5.319-0.151,2.218,13.186,4.286,17.648c2.093,4.438,10.841,10.967,11.723,4.134c0.882-6.806-5.345-21.051-9.354-27.128  c-4.009-6.076,3.127-9.202,2.245-15.126c-0.909-5.926-4.01-17.649,3.982-16.615c8.017,1.033,27.884-12.606,27.884-18.532  c0-5.949,13.212-0.302,14.396-10.236c1.186-9.933,12.304,4.438,23.725-0.454c11.422-4.892,4.008,10.967,13.64,21.657  c9.657,10.689,0.303,15.581,1.033,19.287c0.757,3.705,11.723,5.622,17.068-1.488c5.346-7.11,8.144,7.261,7.715,11.723  c-0.455,4.437,5.925,19.867,1.488,37.667c-4.463,17.799,13.035,17.496,14.522,26.976c1.488,9.506,15.127,19.136,16.464,23.801  c1.336,4.688-10.238-3.983-14.471-5.774c-4.21-1.79-32.701-24.48-35.803-23.144c-3.125,1.336,8.195,15.631,18.684,21.581  c13.337,7.564,6.983,16.539,15.581,22.035c12.883,8.219,19.564,21.783,26.473,24.909c6.882,3.127,17.419,1.261,15.05-5.698  c-2.369-6.984,4.438-13.513-3.705-15.581c-8.169-2.068-12.454-2.068-14.095-9.202c-1.638-7.11,7.414-3.429,3.178-10.009  c-5.547-8.673-3.026-17.573-7.489-21.128c-4.436-3.555-14.975-9.631-16.74-15.581c-1.79-5.925-4.866-6.354-4.613-11.749  c0.176-3.933-6.807-0.277-4.438-9.908c2.798-11.471,5.042-9.479,5.042-17.648c0-8.143,5.042,1.488,4.891,5.648  c-0.15,4.16,6.379,0.303,8.901,4.437c2.522,4.16,5.346,1.059,5.925,7.564c0.605,6.53,12.758,5.648,11.875,16.463  c-0.909,10.842,13.488-4.134,13.79-7.412c0.277-3.253,23.573-7.564,18.077-25.061c-5.471-17.496-11.194-24.404-18.984-28.842  c-7.766-4.437-2.446-14.674,0.227-16.236c2.672-1.563,8.673-11.573,14.018-10.69c5.345,0.908-4.665,16.035,0.228,20.019  c4.889,4.009,16.917-0.101,13.79-8.169c-3.127-8.067,2.218-10.739,6.908-11.395c4.664-0.656,12.883-4.236,18.227-9.354  c5.345-5.118,23.373-6.227,30.709-25.136c7.337-18.908,17.573-21.355,11.774-39.81c-5.772-18.455-19.161-18.48-18.606-26.423  c0.505-7.059,15.657-8.118,11.648-15.454c-4.009-7.311-12.834,1.286-15.933-0.177c-3.128-1.437-6.102-10.74-3.43-17.875  c2.673-7.11,10.085-2.521,11.271,4.613c1.183,7.11,8.596-8.748,17.799-4.463c9.202,4.312-1.765,7.564,0,13.211  c1.79,5.622,12.833,1.639,11.496,13.867c-1.336,12.227,4.464,9.555,7.791,9.555c3.328,0,13.791-5.547,9.782-16.464  c-4.009-10.891-4.589-13.639-10.237-19.261c-5.622-5.648,5.648-21.96,2.673-27.305c-2.976-5.318,35.599,9.506,29.372-20.447  c-6.227-29.976-11.118-34.086-10.009-40.54c1.109-6.454,12.328,14.018,13.01,18.354c0.654,4.336,6.125,7.79,6.125,10.791  c0,3,0.958-5.522-2.167-11.446c-3.101-5.951-9.33-24.179-17.925-32.196c-8.625-7.992-11.145,1.791-16.767,2.521  c-5.648,0.756-12.178-3.706-10.085-9.782c2.068-6.076,6.53-11.421,5.925-19.287c-0.58-7.866,12.151-4.009,14.673-8.295  c2.521-4.311,9.203,7.564,12.177,0c2.95-7.563-3.125-12.606-1.94-15.278c1.185-2.673,7.135,6.833,5.951-3.404  c-1.185-10.236,7.564,7.992,7.412,14.522c-0.151,6.53,5.774,17.346,11.573,24.632c5.773,7.261,15.252,9.479,16.312,17.648  C690.41,212.289,692.327,195.095,683.88,184.556z M294.28,224.165c-5.117,3.328-7.563,10.236-8.671,16.892  c-1.11,6.681-7.564,10.009-8.675,14.698c-1.108,4.665-9.781,17.572-3.125,18.455c6.68,0.882-6.002,8.674-11.346-1.79  c-1.235-2.421-2.874-13.993,7.336-21.784c10.237-7.79,5.118-20.018,12.254-27.581c7.109-7.564,11.345-9.127,13.79-7.791  C298.29,216.601,299.4,220.811,294.28,224.165z M518.667,219.122c1.488,3.857-26.397,17.195-24.329,9.782  c0,0,19.589-9.202,18.985-16.312c-0.581-7.109,4.463-11.27,7.135-10.085C523.13,203.693,517.179,215.264,518.667,219.122z"/><path fill="#D6EAFF" d="M666.121,271.974c-1.797-0.317,4.672-8.676,3.114-11.457c-1.558-2.781-6.451-10.122-4.56-11.123  c1.89-1,5.895,2.892,9.232,4.005c3.337,1.112,10.566,2.892,9.788,5.672c-0.779,2.781-3.56,1.223-3.56,4.337s-3.67,3.449-7.341,3.337  C669.125,266.635,668.012,272.307,666.121,271.974z"/><path fill="#D6EAFF" d="M670.57,277.646c3.43-1.89,12.124,3.337,11.456,10.79c-0.667,7.452,1.335,15.571,3.003,21.244  c1.668,5.672-1,9.567-2.558,9.344c-1.557-0.223-6.451,5.339-9.565,4.116c-3.114-1.224,1.78,7.563,1.112,9.676  c-0.667,2.114-9.12-1.335-10.233-2.225c-1.113-0.89-6.786-3.226-8.009-1.891c-1.224,1.335-10.678,7.341-7.341,8.12  c3.337,0.779,5.672-5.783,9.788-4.671c4.116,1.111-7.341,7.897-7.675,12.791c-0.333,4.895-7.118,13.014-8.008,6.118  c-0.891-6.897-7.119-4.991-6.007-9.948c1.112-4.956,9.009-9.516,10.456-15.411c1.446-5.895,15.35-4.338,16.796-7.564  c1.446-3.226-1.78-9.121,6.451-12.236c8.231-3.114,3.781-17.018,1.779-18.241C670.014,286.433,667.101,279.559,670.57,277.646z"/><path fill="#D6EAFF" d="M602.229,416.078c-1.353,4.469-4.023,7.615-5.964,7.027c-1.94-0.588-2.416-4.686-1.062-9.155  c1.353-4.468,4.023-7.614,5.963-7.026C603.107,407.511,603.583,411.61,602.229,416.078z"/><path fill="#D6EAFF" d="M496.867,615.375c0,0,8.602-7.712,15.572-4.153c6.97,3.559,17.648,2.521,18.836,0.444  c1.186-2.076,14.83,1.335,21.503-0.148c6.674-1.484-4.152,3.262,0,4.448c4.153,1.187,8.023,4.895,2.232,5.488  S498.944,619.824,496.867,615.375z"/><path fill="#D6EAFF" d="M565.181,619.667c0,1.039-1.009,1.882-2.252,1.882c-1.245,0-2.253-0.842-2.253-1.882  c0-1.04,1.009-1.883,2.253-1.883C564.173,617.784,565.181,618.627,565.181,619.667z"/><path fill="#D6EAFF" d="M568.128,617.784c0,0,5.116,1.521,7.044,0c1.928-1.52,9.492-2.883,11.197-1.868  c1.705,1.015,0.297,4.113-2.151,3.75c-2.446-0.362-6.219,0.157-6.595,1.046c-0.375,0.891-7.345,0.338-8.68,0.836  C567.61,622.048,566.126,619.23,568.128,617.784z"/><path fill="#D6EAFF" d="M585.999,623.976c-0.265-0.631,3.597-5.19,8.49-3.411c4.895,1.779,3.838,4.338,2.893,4.227  c-0.946-0.111-3.948-1.613-4.672-1.223C591.987,623.957,586.964,626.275,585.999,623.976z"/><path fill="#D6EAFF" d="M604.983,624.979c0,0,7.86-3.405,11.048-9.063c3.188-5.659,18.613-9.44,21.134-9.144  c2.521,0.297-8.305,4.153-10.234,7.267C625.003,617.154,605.798,627.687,604.983,624.979z"/><path fill="#D6EAFF" d="M590.819,617.079c-0.152-0.418,4.227-3.632,6.526-2.818c2.299,0.816,8.008-0.444,8.675-1.557  c0.668-1.112,6.97-2.447,9.418-2.077c2.447,0.371-4.153,1.569-5.042,3.194c-0.89,1.626-10.011,4.518-10.827,3.962  C598.753,617.228,591.412,618.711,590.819,617.079z"/><path fill="#D6EAFF" d="M528.531,587.196c-0.256-1.6-6.229-5.562-6.451-8.898c-0.223-3.337-4.895-10.01,0-11.345  c4.894-1.335,14.369,0.011,14.682-4.227c0.668-9.047,13.103-2.551,13.57-6.897c0.741-6.897,16.461-10.678,19.354-15.794  c2.892-5.116,4.222-11.791,7.45-11.791c3.228,0,2.338,14.015,5.452,15.572c3.115,1.558,2.447,3.337,1.113,7.119  c-1.335,3.781-0.66,8.675,1.116,10.677c1.775,2.003,6.835,7.342,2.303,8.454s-8.536,3.114-7.423,8.008  c1.111,4.895-6.675,5.784-6.452,9.121c0.223,3.337-1.557,10.678-5.116,9.788s-5.562-0.964-7.453,0.074  c-1.89,1.038-5.227-4.3-10.566-3.188c-5.34,1.111-10.122,1.557-12.013-0.779C536.206,590.756,530.978,602.546,528.531,587.196z"/><path fill="#D6EAFF" d="M592.084,603.548c-1.764,0.148-1.153-10.902-2.266-12.014s-3.226-3.559-1.335-7.674  c1.891-4.116,6.006-10.455,6.229-13.792c0.223-3.337,12.903-7.119,17.685-6.674c4.783,0.445,16.018-7.786,17.018-7.23  c1.002,0.556-4.227,8.676-6.674,9.677c-2.447,1-22.802,2.113-22.691,3.893c0.112,1.779-3.151,8.676,4.932,6.673  c8.083-2.002,13.755-2.224,11.641-0.89c-2.113,1.335-10.865,4.338-7.99,8.342c2.874,4.004,6.099,13.236,4.543,15.683  c-1.558,2.446-8.565,0.974-8.788-2.349c-0.222-3.324-4.337-10.443-5.895-9.331C596.937,588.976,598.689,602.991,592.084,603.548z"/><path fill="#D6EAFF" d="M601.386,489.537c0,0-0.779-8.898-2.781-10.122c-2.002-1.223-4.337-8.12-2.335-11.457  c2.002-3.337,10.01-10.344,9.899-13.569c-0.111-3.226,8.12,6.007,4.894,10.567c-3.225,4.56-6.339,10.678-4.227,13.903  c2.114,3.226,12.346,0.335,13.013,2.558c0.668,2.225,1.78,8.009,6.119,8.12c4.337,0.112,4.671,6.23,4.227,10.123  c-0.445,3.893-5.635,2.78-6.377,0c-0.742-2.782-3.263-8.269-5.339-9.307c-2.077-1.038-10.827-8.601-11.42-5.932  C606.465,487.09,601.646,499.845,601.386,489.537z"/><path fill="#D6EAFF" d="M578.732,521.942c-0.288-1.188,13.375-17.797,16.772-17.501c3.398,0.298-1.497,2.967-2.238,4.449  C592.524,510.375,579.918,526.837,578.732,521.942z"/><path fill="#D6EAFF" d="M616.569,514.008c-4.727,0.778-6.285-1.502-5.394-3.282c0.89-1.779,2.558-3.67-0.335-5.617  c-2.892-1.947-1.943-5.22-1.389-6.062c1.279-1.946,5.45-2.391,6.617,1.447c1.169,3.837,4.005,4.783,6.507,4.56  c2.504-0.223,4.209,0.821,2.893,3.615C624.59,510.531,620.971,513.283,616.569,514.008z"/><path fill="#D6EAFF" d="M611.174,529.135c-2.038,0.407-3.215-4.499-1.891-6.287c3.949-5.337,8.562-4.416,11.568-3.724  c5.072,1.168,9.809-3.288,9.492-6.674c-0.37-3.949,3.118-6.47,4.969-5.005c2.67,2.114,0.111,8.398,1.891,11.457  c1.351,2.323-0.638,3.957-2.558,3.946c-3.04-0.016-4.302,1.838-3.114,3.729c0.803,1.282,3.225,5.339,1.223,6.451  c-1.848,1.026-9.962-1.335-9.82-3.449c0.143-2.113,0.569-3.695-1.081-5.228c-2.335-2.168-8.454-0.444-9.566,1.447  C611.609,526.949,612.287,528.913,611.174,529.135z"/><path fill="#D6EAFF" d="M730.22,624.681c-23.195,22.009-49.643,40.616-78.586,55.013c-0.025,0-0.025,0-0.025,0  c-2.169-1.06-6.521-1.315-12.505-0.404c-8.799,1.34-26.051,16.078-34.111,14.472c-19.006-3.789-29.472,7.109-37.842,6.227  c-8.371-0.908-16.689,7.69-15.709-3.127c1.486-16.381-9.945-9.908-5.772-20.673c4.143-10.687,38.775-13.917,43.289-14.245  c9.226-0.681,1.193-16.909,16.992-16.463c10.092,0.284,23.927-19.388,31.591-12.228c9.782,9.102,11.438-12.747,14.018-17.169  c4.44-7.611,13.035-9.631,21.505-7.638c8.446,1.992,11.611-7.442,13.414-6.127c3.26,2.379-7.805,17.341-4.452,18.804  c3.329,1.462,17.46-4.583,20.134-14.365c2.671-9.782,15.454-16.036,16.564-9.557c1.108,6.454-1.109,14.018,0.908,17.018  C722.026,617.822,732.06,614.217,730.22,624.681z"/><path fill="#D6EAFF" d="M692.482,590.533c-1.715-1.843,9.566-8.676,7.119-12.235c-2.447-3.559-5.942-5.339-7.31-5.116  c-1.367,0.223-9.301,4.523-12.489-0.018c-1.27-1.809-7.341,3.54-8.899,0c-1.557-3.541,0.779-5.877-5.895-6.21  c-6.674-0.335-3.781-3.782-2.336-3.782c1.447,0,7.453-2.558,7.342-5.562c-0.112-3.003,6.562-5.116,8.231-2.225  c1.668,2.893,4.672,2.114,3.67,8.787c-1,6.675,8.407,2.115,7.602-1.747c-0.55-2.634,9.083-10.82,13.866-9.485  s6.822,4.671,12.383,2.224c5.562-2.446,21.097-3.781,21.208,0.112c0.111,3.893,6.897-0.445,7.897,2.225  c1.001,2.669-6.785,5.116-0.667,10.122c6.118,5.005,4.56,3.56,2.002,4.672c-2.558,1.112-5.339,3.225-8.787-2.336  c-3.449-5.561-11.346,2.782-11.902,5.34c-0.556,2.558-10.196,11.456-15.09,10.566C705.534,584.972,695.448,593.722,692.482,590.533z  "/><path fill="#D6EAFF" d="M750.322,553.828c-1.801-0.707-1.038-5.191,1.483-5.191c2.521,0,8.304-5.339,8.75-8.453  c0.444-3.114,3.411-8.898,5.932-8.305c2.521,0.594-0.704,2.596-1.038,5.488c-0.333,2.892-3.479,8.565-7.023,10.456  C754.882,549.712,753.436,555.051,750.322,553.828z"/><path fill="#D6EAFF" d="M643.876,582.636c-1.456-0.816,3.781-6.563,6.562-6.563c2.781,0,12.346-2.447,13.792,0  s-4.56,1.002-7.23,1.78C654.331,578.631,646.656,584.193,643.876,582.636z"/><path fill="#D6EAFF" d="M639.537,583.359c0,0.584-1.718,1.057-3.838,1.057c-2.119,0-3.837-0.473-3.837-1.057  c0-0.583,1.718-1.056,3.837-1.056C637.82,582.303,639.537,582.776,639.537,583.359z"/><path fill="#D6EAFF" d="M659.867,598.566c0.586,0.629,2.301-0.014,3.828-1.438c1.529-1.424,2.292-3.088,1.706-3.718  c-0.586-0.629-2.3,0.014-3.828,1.439C660.044,596.273,659.281,597.937,659.867,598.566z"/><path fill="#D6EAFF" d="M643.624,572.737c-0.97-0.057-1.359-3.422-2.159-5.34c-1.038-2.484,2.076-4.523,1.595-5.969  c-0.356-1.066-0.6-6.859,0.57-8.269c1.172-1.408,2.765,0.186,5.102-0.891c2.29-1.055,2.188,3.301,0.593,4.524  c-1.675,1.285-2.484,4.709-0.927,6.34c1.557,1.632-2.744,3.523-2.077,4.931C646.99,569.474,646.155,572.885,643.624,572.737z"/><path fill="#4381D1" d="M284.57,759.252c0.552,0,1.043-0.332,1.146-0.807c0.118-0.536-0.302-1.051-0.936-1.15  c-0.024-0.004-2.525-0.396-6.804-1.206c-0.629-0.118-1.253,0.216-1.393,0.748c-0.141,0.532,0.255,1.059,0.884,1.178  c4.326,0.818,6.864,1.216,6.889,1.22C284.428,759.247,284.5,759.252,284.57,759.252z"/><path fill="#4381D1" d="M263.785,755.187c-4.527-1.01-9.096-2.101-13.582-3.242c-0.618-0.157-0.967-0.707-0.782-1.229  c0.186-0.523,0.84-0.815,1.453-0.661c4.461,1.134,9.005,2.219,13.506,3.224c0.623,0.139,0.995,0.679,0.831,1.206  c-0.138,0.443-0.611,0.735-1.128,0.735C263.985,755.22,263.885,755.209,263.785,755.187z M236.767,748.308  c-4.504-1.294-8.968-2.658-13.271-4.052c-0.602-0.195-0.903-0.766-0.672-1.275c0.23-0.508,0.905-0.766,1.507-0.568  c4.275,1.385,8.712,2.74,13.186,4.026c0.61,0.176,0.937,0.736,0.73,1.252c-0.165,0.411-0.619,0.67-1.105,0.67  C237.018,748.361,236.891,748.344,236.767,748.308z M210.427,739.751c-4.407-1.615-8.717-3.301-12.809-5.011  c-0.578-0.242-0.815-0.833-0.529-1.322c0.285-0.49,0.989-0.689,1.563-0.448c4.058,1.695,8.333,3.367,12.704,4.97  c0.591,0.216,0.863,0.798,0.607,1.298c-0.191,0.372-0.62,0.594-1.072,0.594C210.736,739.833,210.578,739.807,210.427,739.751z   M185.132,729.147c-4.213-2.027-8.265-4.135-12.042-6.264c-0.536-0.303-0.682-0.915-0.324-1.369  c0.358-0.454,1.083-0.577,1.618-0.274c3.732,2.104,7.736,4.187,11.901,6.191c0.561,0.269,0.757,0.872,0.438,1.346  c-0.215,0.319-0.609,0.499-1.015,0.499C185.512,729.277,185.314,729.235,185.132,729.147z M161.655,715.83  c-3.817-2.585-7.377-5.268-10.581-7.973c-0.456-0.385-0.456-1.01-0.001-1.396c0.455-0.386,1.193-0.386,1.65-0.001  c3.144,2.654,6.64,5.289,10.391,7.829c0.503,0.341,0.584,0.962,0.182,1.387c-0.23,0.244-0.57,0.37-0.912,0.37  C162.128,716.047,161.87,715.976,161.655,715.83z M141.718,698.831c-2.951-3.296-5.513-6.713-7.615-10.155  c-0.295-0.484-0.071-1.08,0.502-1.33c0.572-0.247,1.277-0.06,1.573,0.424c2.04,3.342,4.531,6.663,7.403,9.87  c0.389,0.434,0.287,1.053-0.226,1.383c-0.211,0.135-0.458,0.2-0.704,0.2C142.297,699.222,141.948,699.087,141.718,698.831z   M128.848,677.489c-1.293-3.862-2.102-7.855-2.404-11.867c-0.041-0.544,0.447-1.013,1.09-1.048c0.65-0.037,1.198,0.378,1.239,0.922  c0.292,3.873,1.073,7.727,2.32,11.456c0.176,0.524-0.185,1.07-0.805,1.218c-0.107,0.025-0.213,0.037-0.319,0.037  C129.461,678.207,128.993,677.924,128.848,677.489z M141.092,664.253c-0.634-0.097-1.055-0.611-0.94-1.147  c0.115-0.536,0.72-0.893,1.356-0.795c4.56,0.698,9.168,0.787,13.609,0.265c0.634-0.069,1.228,0.302,1.317,0.841  c0.089,0.54-0.357,1.038-0.995,1.114c-2.006,0.236-4.059,0.357-6.101,0.357C146.613,664.888,143.839,664.675,141.092,664.253z   M167.601,660.505c-0.278-0.491-0.031-1.081,0.551-1.315c4.566-1.843,8.21-4.109,10.83-6.736c0.416-0.417,1.152-0.47,1.644-0.118  c0.493,0.351,0.556,0.974,0.14,1.391c-2.835,2.844-6.741,5.282-11.609,7.245c-0.162,0.066-0.333,0.096-0.502,0.096  C168.218,661.067,167.801,660.86,167.601,660.505z M127.507,660.428c-4.164-1.725-8.198-3.932-11.992-6.56  c-0.498-0.346-0.572-0.967-0.163-1.388c0.409-0.422,1.143-0.484,1.642-0.138c3.654,2.531,7.536,4.656,11.539,6.315  c0.579,0.24,0.819,0.831,0.534,1.32c-0.202,0.35-0.617,0.553-1.048,0.553C127.847,660.529,127.672,660.497,127.507,660.428z   M127.979,654.688c-0.638-0.073-1.086-0.571-0.999-1.111c0.616-3.835,1.668-7.783,3.128-11.735c0.192-0.519,0.846-0.813,1.462-0.648  c0.616,0.163,0.958,0.716,0.766,1.236c-1.421,3.847-2.445,7.686-3.043,11.413c-0.08,0.495-0.579,0.854-1.155,0.854  C128.086,654.697,128.032,654.694,127.979,654.688z M105.458,645.324c-2.955-3.051-5.646-6.401-7.998-9.957  c-0.315-0.476-0.113-1.077,0.449-1.344c0.564-0.264,1.273-0.096,1.589,0.38c2.285,3.455,4.897,6.709,7.765,9.67  c0.409,0.421,0.336,1.044-0.163,1.389c-0.216,0.15-0.478,0.224-0.739,0.224C106.024,645.685,105.689,645.562,105.458,645.324z   M184.934,643.251c-0.644-0.023-1.144-0.483-1.117-1.028c0.012-0.245,0.019-0.49,0.019-0.735c0.001-3.351-1.165-6.833-3.37-10.07  c-0.321-0.472-0.13-1.076,0.429-1.348c0.559-0.272,1.273-0.11,1.594,0.362c2.41,3.536,3.682,7.359,3.681,11.055  c0,0.273-0.007,0.545-0.02,0.818c-0.027,0.53-0.544,0.945-1.166,0.945C184.967,643.252,184.951,643.252,184.934,643.251z   M136.035,632.052c-0.56-0.269-0.757-0.872-0.438-1.346c2.661-3.962,5.814-7.083,9.372-9.275c0.521-0.322,1.252-0.225,1.631,0.216  c0.38,0.441,0.265,1.058-0.256,1.379c-3.288,2.026-6.221,4.938-8.717,8.655c-0.215,0.32-0.61,0.5-1.016,0.5  C136.416,632.18,136.217,632.139,136.035,632.052z M91.566,624.423c-1.593-3.723-2.868-7.619-3.792-11.581  c-0.125-0.534,0.287-1.054,0.92-1.159c0.63-0.108,1.246,0.242,1.371,0.777c0.9,3.864,2.144,7.662,3.696,11.291  c0.219,0.513-0.094,1.079-0.7,1.264c-0.131,0.04-0.265,0.059-0.397,0.059C92.186,625.074,91.737,624.825,91.566,624.423z   M171.295,623.163c-3.959-2.22-8.294-3.437-12.539-3.519c-0.645-0.013-1.155-0.465-1.14-1.009c0.015-0.545,0.556-0.959,1.193-0.964  c4.686,0.091,9.449,1.422,13.776,3.847c0.537,0.301,0.684,0.914,0.328,1.368c-0.224,0.287-0.596,0.441-0.973,0.441  C171.717,623.328,171.493,623.274,171.295,623.163z M86.052,600.924c-0.085-1.43-0.129-2.891-0.129-4.344  c0-2.528,0.131-5.105,0.391-7.658c0.055-0.543,0.634-0.951,1.262-0.898c0.643,0.046,1.118,0.524,1.063,1.068  c-0.254,2.497-0.382,5.016-0.382,7.489c0,1.419,0.043,2.847,0.125,4.245c0.033,0.544-0.463,1.008-1.107,1.035  c-0.02,0.001-0.04,0.001-0.059,0.001C86.599,601.861,86.083,601.451,86.052,600.924z M89.324,578.235  c-0.63-0.115-1.03-0.64-0.895-1.173c0.977-3.833,2.254-7.719,3.796-11.548c0.208-0.516,0.871-0.792,1.481-0.616  c0.61,0.175,0.936,0.736,0.729,1.252c-1.513,3.757-2.766,7.568-3.723,11.327c-0.118,0.463-0.602,0.779-1.141,0.779  C89.49,578.257,89.407,578.25,89.324,578.235z M98.075,555.713c-0.585-0.229-0.839-0.816-0.569-1.311  c1.943-3.544,4.153-7.11,6.568-10.6c0.327-0.471,1.043-0.628,1.597-0.354c0.556,0.276,0.743,0.88,0.418,1.351  c-2.378,3.435-4.553,6.946-6.465,10.433c-0.197,0.36-0.619,0.572-1.059,0.572C98.401,555.805,98.234,555.775,98.075,555.713z   M112.021,535.129c-0.527-0.314-0.652-0.93-0.281-1.376c2.657-3.181,5.547-6.373,8.593-9.487c0.412-0.42,1.146-0.477,1.643-0.132  c0.497,0.348,0.566,0.969,0.156,1.39c-3.008,3.075-5.863,6.227-8.484,9.367c-0.227,0.273-0.588,0.418-0.954,0.418  C112.461,535.309,112.226,535.25,112.021,535.129z M129.797,516.795c-0.447-0.393-0.435-1.017,0.029-1.396  c3.237-2.641,6.885-5.217,10.842-7.658c0.521-0.321,1.251-0.225,1.631,0.216c0.38,0.44,0.265,1.058-0.255,1.379  c-3.871,2.387-7.436,4.905-10.596,7.483c-0.227,0.185-0.519,0.277-0.811,0.277C130.331,517.096,130.026,516.995,129.797,516.795z   M152.105,502.598c-0.322-0.472-0.131-1.076,0.427-1.348c3.897-1.902,8.112-3.759,12.528-5.521c0.579-0.231,1.278-0.021,1.553,0.471  c0.275,0.493,0.026,1.081-0.558,1.313c-4.358,1.738-8.515,3.571-12.356,5.445c-0.184,0.09-0.385,0.132-0.583,0.132  C152.714,503.091,152.321,502.915,152.105,502.598z M177.369,492.28c-0.236-0.507,0.058-1.08,0.657-1.281  c4.205-1.404,8.667-2.777,13.263-4.084c0.608-0.174,1.273,0.105,1.478,0.621c0.205,0.517-0.123,1.076-0.735,1.25  c-4.557,1.295-8.981,2.658-13.149,4.049c-0.141,0.047-0.286,0.069-0.429,0.069C177.99,492.905,177.551,492.668,177.369,492.28z   M203.959,484.585c-0.179-0.523,0.177-1.071,0.796-1.223c4.363-1.069,8.943-2.117,13.613-3.114c0.627-0.134,1.259,0.188,1.417,0.715  c0.158,0.528-0.22,1.065-0.846,1.198c-4.644,0.992-9.198,2.034-13.535,3.097c-0.108,0.027-0.217,0.039-0.325,0.039  C204.573,485.297,204.107,485.017,203.959,484.585z M231.2,478.679c-0.14-0.532,0.257-1.06,0.886-1.178  c4.455-0.835,9.097-1.655,13.796-2.435c0.633-0.106,1.247,0.244,1.37,0.778c0.125,0.535-0.288,1.054-0.92,1.158  c-4.681,0.777-9.304,1.593-13.739,2.426c-0.085,0.015-0.17,0.023-0.255,0.023C231.803,479.452,231.32,479.138,231.2,478.679z   M258.785,474.038c-0.111-0.537,0.314-1.049,0.949-1.142c4.49-0.664,9.165-1.317,13.897-1.942c0.631-0.078,1.233,0.284,1.333,0.823  c0.1,0.538-0.337,1.043-0.973,1.128c-4.717,0.623-9.379,1.274-13.856,1.936c-0.067,0.011-0.135,0.015-0.202,0.015  C259.377,474.855,258.884,474.517,258.785,474.038z M286.569,470.324c-0.089-0.54,0.355-1.039,0.994-1.115  c4.596-0.546,9.25-1.07,13.956-1.574c0.647-0.071,1.224,0.314,1.305,0.855c0.081,0.541-0.372,1.034-1.011,1.103  c-4.696,0.503-9.339,1.025-13.926,1.57c-0.055,0.006-0.109,0.01-0.163,0.01C287.151,471.174,286.651,470.817,286.569,470.324z   M314.47,467.303c-0.074-0.542,0.386-1.031,1.027-1.093c4.621-0.448,9.286-0.879,13.993-1.294c0.642-0.047,1.214,0.337,1.282,0.879  c0.067,0.542-0.399,1.027-1.039,1.084c-4.699,0.414-9.357,0.845-13.969,1.292c-0.045,0.004-0.09,0.006-0.134,0.006  C315.043,468.177,314.538,467.806,314.47,467.303z M342.443,464.81c-0.061-0.543,0.41-1.025,1.051-1.076  c4.638-0.374,9.31-0.734,14.015-1.082c0.638-0.044,1.208,0.354,1.264,0.897c0.056,0.543-0.418,1.021-1.061,1.069  c-4.699,0.348-9.366,0.707-13.997,1.081c-0.038,0.003-0.075,0.004-0.112,0.004C343.009,465.703,342.501,465.321,342.443,464.81z   M370.461,462.719c-0.052-0.543,0.427-1.02,1.069-1.063c4.649-0.317,9.326-0.625,14.028-0.922c0.639-0.048,1.203,0.366,1.251,0.91  c0.048,0.543-0.434,1.017-1.077,1.058c-4.697,0.297-9.369,0.603-14.014,0.921c-0.033,0.002-0.063,0.003-0.096,0.003  C371.02,463.626,370.51,463.235,370.461,462.719z M398.509,460.93c-0.045-0.543,0.44-1.015,1.083-1.053  c4.658-0.275,9.338-0.543,14.035-0.804c0.647-0.033,1.199,0.376,1.242,0.92c0.042,0.544-0.445,1.014-1.088,1.05  c-4.693,0.261-9.37,0.527-14.025,0.802c-0.027,0.002-0.056,0.002-0.083,0.002C399.065,461.849,398.552,461.451,398.509,460.93z   M426.574,459.362c-0.04-0.544,0.449-1.012,1.093-1.046c4.665-0.245,9.347-0.484,14.04-0.72c0.636-0.036,1.196,0.382,1.234,0.927  c0.038,0.544-0.452,1.011-1.096,1.043c-4.692,0.235-9.37,0.475-14.034,0.72c-0.024,0.001-0.049,0.002-0.074,0.002  C427.126,460.288,426.612,459.885,426.574,459.362z M454.65,457.95c-0.036-0.544,0.456-1.011,1.099-1.042  c4.66-0.225,9.329-0.446,14.006-0.666c0.671-0.027,1.194,0.387,1.23,0.931c0.036,0.544-0.457,1.01-1.101,1.04  c-4.675,0.219-9.343,0.441-14.001,0.666c-0.023,0.001-0.045,0.001-0.067,0.001C455.2,458.88,454.686,458.475,454.65,457.95z   M482.684,456.629c-0.035-0.544,0.458-1.01,1.102-1.04l14.061-0.645c0.627-0.025,1.194,0.388,1.229,0.932  c0.035,0.544-0.459,1.009-1.103,1.039l-14.059,0.645c-0.022,0.001-0.043,0.001-0.065,0.001  C483.234,457.562,482.718,457.155,482.684,456.629z M510.83,455.339c-0.035-0.544,0.459-1.01,1.103-1.039l14.041-0.648  c0.644-0.013,1.194,0.388,1.229,0.932c0.035,0.544-0.458,1.01-1.102,1.04l-14.043,0.648c-0.021,0.001-0.042,0.001-0.064,0.001  C511.378,456.272,510.864,455.865,510.83,455.339z M538.914,454.032c-0.036-0.543,0.456-1.01,1.099-1.041  c4.687-0.223,9.366-0.449,14.038-0.68c0.673-0.036,1.197,0.383,1.233,0.928c0.038,0.544-0.454,1.011-1.096,1.042  c-4.675,0.231-9.355,0.457-14.043,0.681c-0.023,0.001-0.045,0.001-0.067,0.001C539.464,454.963,538.949,454.557,538.914,454.032z   M566.991,452.65c-0.039-0.544,0.451-1.012,1.094-1.045c4.69-0.242,9.367-0.488,14.031-0.741c0.641-0.03,1.199,0.378,1.239,0.922  c0.041,0.543-0.447,1.013-1.09,1.048c-4.666,0.253-9.346,0.499-14.039,0.741c-0.023,0.001-0.048,0.002-0.072,0.002  C567.542,453.577,567.029,453.174,566.991,452.65z M595.058,451.134c-0.044-0.543,0.443-1.014,1.086-1.051  c4.692-0.27,9.368-0.547,14.023-0.833c0.641-0.034,1.201,0.369,1.249,0.913c0.046,0.544-0.437,1.017-1.08,1.056  c-4.659,0.286-9.337,0.563-14.033,0.833c-0.027,0.002-0.053,0.003-0.08,0.003C595.614,452.055,595.101,451.656,595.058,451.134z   M623.112,449.421c-0.05-0.543,0.43-1.018,1.073-1.06c4.694-0.309,9.365-0.629,14.01-0.96c0.625-0.029,1.207,0.358,1.261,0.901  c0.054,0.543-0.423,1.02-1.065,1.067c-4.649,0.331-9.324,0.65-14.025,0.96c-0.03,0.002-0.062,0.003-0.092,0.003  C623.671,450.331,623.159,449.939,623.112,449.421z M651.139,447.437c-0.059-0.543,0.414-1.023,1.056-1.073  c4.696-0.362,9.36-0.738,13.99-1.128c0.638-0.049,1.213,0.343,1.277,0.885c0.064,0.542-0.404,1.026-1.046,1.079  c-4.636,0.39-9.306,0.766-14.008,1.129c-0.036,0.003-0.072,0.004-0.108,0.004C651.703,448.334,651.194,447.949,651.139,447.437z   M679.129,445.094c-0.07-0.542,0.393-1.029,1.034-1.088c4.694-0.432,9.349-0.881,13.959-1.348c0.652-0.071,1.221,0.321,1.298,0.862  c0.077,0.542-0.38,1.032-1.019,1.097c-4.619,0.468-9.281,0.917-13.985,1.35c-0.042,0.004-0.085,0.006-0.127,0.006  C679.699,445.974,679.194,445.6,679.129,445.094z M707.057,442.286c-0.084-0.54,0.366-1.036,1.005-1.108  c4.69-0.523,9.328-1.067,13.913-1.632c0.631-0.077,1.23,0.295,1.324,0.834c0.092,0.54-0.349,1.04-0.986,1.119  c-4.596,0.567-9.245,1.112-13.945,1.636c-0.052,0.006-0.103,0.009-0.154,0.009C707.636,443.143,707.135,442.782,707.057,442.286z   M734.891,438.872c-0.103-0.538,0.329-1.045,0.965-1.132c4.723-0.648,9.379-1.322,13.84-2.004c0.63-0.097,1.241,0.259,1.356,0.795  c0.115,0.536-0.307,1.049-0.941,1.146c-4.474,0.685-9.144,1.361-13.881,2.01c-0.063,0.009-0.126,0.013-0.188,0.013  C735.479,439.701,734.984,439.357,734.891,438.872z M762.571,434.668c-0.129-0.534,0.28-1.055,0.912-1.163  c4.668-0.8,9.283-1.639,13.717-2.495c0.63-0.121,1.254,0.212,1.398,0.743c0.143,0.531-0.25,1.061-0.878,1.182  c-4.453,0.858-9.088,1.702-13.773,2.504c-0.078,0.013-0.157,0.02-0.233,0.02C763.169,435.459,762.682,435.135,762.571,434.668z   M789.991,429.412c-0.162-0.527,0.214-1.067,0.837-1.203c4.631-1.013,9.176-2.076,13.509-3.158c0.617-0.155,1.267,0.144,1.45,0.667  c0.182,0.523-0.17,1.072-0.789,1.226c-4.358,1.088-8.928,2.157-13.585,3.176c-0.098,0.021-0.197,0.031-0.293,0.031  C790.601,430.152,790.127,429.857,789.991,429.412z M816.956,422.725c-0.208-0.516,0.118-1.077,0.729-1.252  c4.535-1.306,8.952-2.679,13.127-4.08c0.599-0.2,1.278,0.047,1.516,0.553c0.238,0.507-0.055,1.081-0.654,1.282  c-4.211,1.413-8.665,2.797-13.237,4.113c-0.125,0.036-0.251,0.053-0.376,0.053C817.574,423.393,817.122,423.135,816.956,422.725z   M843.068,414.025c-0.274-0.493-0.023-1.081,0.56-1.313c4.343-1.727,8.507-3.543,12.375-5.399c0.558-0.268,1.272-0.102,1.591,0.371  c0.318,0.474,0.121,1.076-0.439,1.346c-3.92,1.881-8.137,3.721-12.535,5.469c-0.161,0.064-0.329,0.094-0.496,0.094  C843.687,414.592,843.267,414.382,843.068,414.025z M867.452,402.428c-0.371-0.445-0.245-1.062,0.283-1.375  c3.902-2.323,7.534-4.771,10.794-7.273c0.477-0.366,1.215-0.337,1.648,0.068c0.433,0.404,0.398,1.027-0.08,1.394  c-3.331,2.558-7.038,5.055-11.019,7.426c-0.205,0.122-0.438,0.18-0.671,0.18C868.041,402.846,867.679,402.701,867.452,402.428z   M888.145,386.76c-0.501-0.343-0.579-0.964-0.173-1.389c2.94-3.075,5.508-6.319,7.633-9.641c0.307-0.48,1.016-0.658,1.582-0.398  c0.567,0.26,0.778,0.858,0.471,1.338c-2.193,3.428-4.841,6.773-7.871,9.942c-0.23,0.241-0.568,0.366-0.908,0.366  C888.62,386.979,888.361,386.907,888.145,386.76z M901.832,366.25c-0.606-0.187-0.918-0.753-0.697-1.265  c1.619-3.753,2.979-7.539,4.043-11.254c0.152-0.529,0.777-0.853,1.41-0.727c0.626,0.128,1.011,0.662,0.859,1.192  c-1.085,3.786-2.471,7.643-4.119,11.465c-0.172,0.4-0.62,0.649-1.096,0.649C902.098,366.31,901.963,366.29,901.832,366.25z   M908.64,343.255c-0.641-0.06-1.101-0.549-1.029-1.091c0.429-3.228,0.647-6.488,0.648-9.687c0-0.679-0.01-1.357-0.03-2.033  c-0.015-0.545,0.495-0.998,1.139-1.011c0.009-0.001,0.019-0.001,0.029-0.001c0.632,0,1.15,0.426,1.166,0.963  c0.02,0.692,0.029,1.386,0.029,2.081c0,3.273-0.224,6.606-0.663,9.908c-0.067,0.504-0.572,0.877-1.158,0.877  C908.729,343.262,908.684,343.26,908.64,343.255z M906.934,318.815c-0.745-3.805-1.818-7.631-3.191-11.374  c-0.191-0.52,0.154-1.073,0.769-1.235c0.616-0.163,1.269,0.13,1.46,0.65c1.405,3.828,2.503,7.743,3.264,11.636  c0.105,0.538-0.325,1.046-0.96,1.134c-0.065,0.009-0.129,0.014-0.192,0.014C907.523,319.641,907.028,319.299,906.934,318.815z   M898.793,296.507c-1.876-3.474-4.059-6.962-6.488-10.37c-0.333-0.467-0.156-1.073,0.397-1.354c0.551-0.282,1.269-0.132,1.602,0.335  c2.476,3.471,4.7,7.027,6.613,10.569c0.268,0.496,0.01,1.081-0.577,1.308c-0.157,0.061-0.322,0.089-0.484,0.089  C899.412,297.083,898.989,296.87,898.793,296.507z M884.526,276.393c-2.703-3.053-5.674-6.117-8.832-9.106  c-0.43-0.406-0.388-1.03,0.093-1.393c0.482-0.364,1.219-0.328,1.647,0.079c3.203,3.031,6.218,6.139,8.962,9.237  c0.386,0.436,0.281,1.055-0.235,1.382c-0.21,0.133-0.456,0.197-0.699,0.197C885.106,276.789,884.755,276.652,884.526,276.393z   M866.008,258.798c-3.257-2.656-6.746-5.317-10.369-7.912c-0.492-0.352-0.552-0.975-0.136-1.391  c0.416-0.414,1.152-0.468,1.645-0.115c3.661,2.622,7.187,5.312,10.481,7.997c0.464,0.379,0.478,1.003,0.03,1.396  c-0.229,0.201-0.535,0.302-0.84,0.302C866.526,259.075,866.234,258.983,866.008,258.798z M844.716,243.507  c-3.624-2.314-7.451-4.633-11.372-6.89c-0.533-0.307-0.671-0.921-0.308-1.371c0.363-0.45,1.09-0.567,1.621-0.261  c3.953,2.276,7.81,4.613,11.466,6.947c0.514,0.328,0.616,0.948,0.228,1.383c-0.229,0.256-0.579,0.392-0.932,0.392  C845.174,243.707,844.927,243.642,844.716,243.507z M821.601,230.171c-3.88-2.032-7.934-4.063-12.049-6.038  c-0.561-0.269-0.758-0.871-0.439-1.346c0.319-0.474,1.032-0.641,1.591-0.371c4.141,1.987,8.221,4.031,12.127,6.077  c0.548,0.287,0.717,0.896,0.378,1.359c-0.221,0.301-0.603,0.467-0.993,0.467C822.005,230.319,821.792,230.272,821.601,230.171z   M797.243,218.469c-4.051-1.789-8.265-3.58-12.526-5.32c-0.581-0.237-0.824-0.827-0.543-1.318c0.281-0.492,0.979-0.698,1.559-0.46  c4.283,1.75,8.519,3.549,12.591,5.348c0.571,0.252,0.793,0.848,0.494,1.332c-0.208,0.337-0.615,0.53-1.035,0.53  C797.601,218.582,797.416,218.546,797.243,218.469z M772.007,208.147c-4.196-1.591-8.526-3.175-12.871-4.707  c-0.595-0.21-0.876-0.789-0.628-1.291c0.249-0.504,0.929-0.741,1.527-0.531c4.363,1.539,8.712,3.13,12.926,4.728  c0.588,0.223,0.852,0.807,0.588,1.304c-0.194,0.366-0.62,0.583-1.066,0.583C772.324,208.233,772.162,208.206,772.007,208.147z   M746.125,199.007c-4.278-1.407-8.696-2.811-13.131-4.173c-0.607-0.186-0.919-0.752-0.699-1.264c0.22-0.513,0.888-0.777,1.495-0.591  c4.453,1.367,8.887,2.777,13.182,4.189c0.6,0.198,0.898,0.77,0.664,1.278c-0.18,0.39-0.62,0.629-1.087,0.629  C746.407,199.075,746.264,199.053,746.125,199.007z M719.755,190.905c-4.353-1.249-8.838-2.495-13.332-3.7  c-0.615-0.164-0.955-0.72-0.76-1.239c0.195-0.52,0.848-0.809,1.466-0.642c4.508,1.21,9.009,2.458,13.377,3.711  c0.61,0.176,0.937,0.736,0.73,1.252c-0.166,0.411-0.62,0.67-1.106,0.67C720.005,190.957,719.879,190.94,719.755,190.905z   M693.006,183.727c-4.436-1.112-8.974-2.212-13.492-3.27c-0.621-0.145-0.985-0.689-0.813-1.214c0.172-0.525,0.818-0.835,1.436-0.688  c4.53,1.061,9.083,2.164,13.532,3.279c0.618,0.155,0.971,0.704,0.787,1.227c-0.15,0.429-0.616,0.706-1.118,0.706  C693.228,183.767,693.116,183.754,693.006,183.727z M665.958,177.388c-4.476-0.978-9.058-1.945-13.619-2.874  c-0.626-0.127-1.012-0.661-0.861-1.191c0.15-0.529,0.78-0.852,1.408-0.728c4.573,0.932,9.167,1.901,13.656,2.882  c0.625,0.136,1,0.675,0.838,1.202c-0.136,0.445-0.609,0.74-1.129,0.74C666.154,177.419,666.056,177.409,665.958,177.388z   M638.667,171.829c-4.515-0.855-9.131-1.697-13.721-2.503c-0.631-0.111-1.036-0.633-0.906-1.167c0.131-0.534,0.747-0.88,1.38-0.766  c4.602,0.808,9.23,1.652,13.758,2.509c0.628,0.119,1.024,0.647,0.884,1.179c-0.121,0.459-0.603,0.771-1.138,0.771  C638.839,171.853,638.753,171.845,638.667,171.829z M611.18,167.003c-4.574-0.742-9.208-1.463-13.771-2.144  c-0.634-0.095-1.058-0.606-0.947-1.143c0.112-0.537,0.713-0.893,1.353-0.801c4.574,0.683,9.219,1.405,13.804,2.149  c0.633,0.103,1.048,0.62,0.927,1.155c-0.107,0.473-0.596,0.801-1.145,0.801C611.328,167.02,611.254,167.015,611.18,167.003z   M583.59,162.885c-4.612-0.629-9.234-1.231-13.864-1.805c-0.637-0.079-1.079-0.58-0.985-1.12c0.093-0.539,0.681-0.91,1.324-0.834  c4.64,0.575,9.274,1.179,13.897,1.81c0.636,0.087,1.069,0.593,0.966,1.131c-0.092,0.484-0.588,0.83-1.15,0.83  C583.716,162.898,583.653,162.894,583.59,162.885z M555.819,159.442c-4.645-0.519-9.294-1.009-13.945-1.471  c-0.641-0.064-1.098-0.554-1.023-1.095c0.074-0.542,0.662-0.94,1.295-0.865c4.663,0.463,9.323,0.954,13.979,1.474  c0.639,0.071,1.089,0.567,1.005,1.108c-0.078,0.497-0.579,0.858-1.156,0.858C555.922,159.45,555.871,159.447,555.819,159.442z   M527.893,156.669c-4.673-0.407-9.345-0.785-14.013-1.134c-0.642-0.048-1.117-0.527-1.06-1.07c0.058-0.544,0.628-0.938,1.265-0.896  c4.681,0.35,9.364,0.729,14.047,1.136c0.641,0.056,1.108,0.54,1.042,1.083c-0.062,0.508-0.568,0.886-1.159,0.886  C527.974,156.674,527.934,156.672,527.893,156.669z M499.888,154.576c-4.681-0.293-9.355-0.555-14.02-0.789  c-0.643-0.032-1.134-0.499-1.096-1.043c0.038-0.544,0.57-0.968,1.234-0.927c4.676,0.234,9.361,0.497,14.053,0.79  c0.643,0.04,1.125,0.513,1.078,1.057c-0.045,0.519-0.557,0.914-1.163,0.914C499.947,154.578,499.917,154.578,499.888,154.576z"/><path fill="#4381D1" d="M471.654,153.169c0.621,0,1.138-0.414,1.166-0.944c0.028-0.545-0.472-1.006-1.115-1.029  c-2.338-0.086-4.672-0.165-7.003-0.237c-0.619-0.019-1.185,0.406-1.209,0.951c-0.023,0.545,0.48,1.002,1.124,1.022  c2.326,0.071,4.655,0.15,6.986,0.237C471.619,153.169,471.637,153.169,471.654,153.169z"/><polygon fill="#4381D1" points="449.598 152.66 412.541 154.528 423.678 138.934"/><polygon fill="#4381D1" points="415.437 159.45 367.162 147.669 427.001 145.405"/><polygon fill="#4381D1" points="367.116 147.62 441.463 118.973 430.87 133.254"/><polygon fill="#4381D1" points="367.162 147.669 427.128 145.539 449.598 152.66 430.872 133.027"/><path fill="#FFF" d="M1086.203,358.689v463.826c0,7.034-5.688,12.736-12.719,12.736H306.381c-7.032,0-12.735-5.701-12.735-12.736  V358.689c0-7.034,5.703-12.736,12.735-12.736h767.103C1080.516,345.954,1086.203,351.656,1086.203,358.689z"/><path fill="#4381D1" d="M1131.693,879.962H252.449c-5.484,0-9.931-8.546-9.931-19.09l0,0c0-10.542,4.447-19.092,9.931-19.092  h879.244c5.484,0,9.929,8.55,9.929,19.092l0,0C1141.622,871.415,1137.177,879.962,1131.693,879.962z"/><path fill="#4381D1" d="M1079.144,303.063H300.706c-6.4,0-11.591,5.234-11.591,11.686v515.339c0,6.451,5.192,11.685,11.591,11.685  h778.439c6.399,0,11.591-5.234,11.591-11.685V314.749C1090.736,308.297,1085.543,303.063,1079.144,303.063z M1083.034,819.173  c0,6.985-5.625,12.646-12.579,12.646H311.81c-6.954,0-12.594-5.661-12.594-12.646V358.6c0-6.984,5.64-12.646,12.594-12.646h758.645  c6.954,0,12.579,5.662,12.579,12.646V819.173z"/><path fill="#B0D4FF" d="M944.848,360.463H570.585c-5.055,0-9.155,3.982-9.155,8.895c0,4.912,4.1,8.895,9.155,8.895h374.264  c5.057,0,9.156-3.982,9.156-8.895C954.005,364.445,949.905,360.463,944.848,360.463z"/><path fill="#B0D4FF" d="M987.329,369.358c0,4.912-4.099,8.895-9.155,8.895c-5.056,0-9.155-3.982-9.155-8.895  c0-4.913,4.099-8.895,9.155-8.895C983.23,360.463,987.329,364.445,987.329,369.358z"/><path fill="#B0D4FF" d="M1009.301,369.358c0,4.912-4.099,8.895-9.155,8.895c-5.056,0-9.155-3.982-9.155-8.895  c0-4.913,4.099-8.895,9.155-8.895C1005.203,360.463,1009.301,364.445,1009.301,369.358z"/><path fill="#B0D4FF" d="M1031.274,369.358c0,4.912-4.099,8.895-9.155,8.895c-5.056,0-9.155-3.982-9.155-8.895  c0-4.913,4.099-8.895,9.155-8.895C1027.175,360.463,1031.274,364.445,1031.274,369.358z"/><path fill="#B0D4FF" d="M530.342,360.463H363.725c-5.057,0-9.155,3.982-9.155,8.895c0,4.912,4.098,8.895,9.155,8.895h166.617  c5.057,0,9.155-3.982,9.155-8.895C539.497,364.445,535.398,360.463,530.342,360.463z"/><path fill="#0D3F75" d="M1218.364,858.681c-4.256-18.301-7.078-70.883,2.713-106.133c8.475-30.518,0.147-48.418,0.062-48.596  l1.809-0.873c0.361,0.749,8.759,18.697,0.063,50.006c-9.699,34.927-6.906,87.014-2.689,105.141L1218.364,858.681z"/><path fill="#0D3F75" d="M1228.455,860.173c-1.369-0.479-8.059-5.419-5.366-55.751c2.713-50.749-23.673-58.959-23.94-59.036  l0.557-1.93c1.151,0.334,28.187,8.746,25.388,61.072c-2.63,49.188,4.052,53.75,4.121,53.789L1228.455,860.173z"/><path fill="#0D3F75" d="M1224.929,857.306c-1.489-6.392,1.255-20.359,4.158-35.145c1.953-9.952,3.975-20.245,4.381-27.227  c0.414-7.12-0.696-15.606-1.771-23.817c-1.507-11.509-2.928-22.381-0.543-30.059c1.506-4.844,5.025-8.453,9.656-9.903  c4.982-1.547,10.591-0.423,15.012,3.031l-1.235,1.581c-3.903-3.048-8.83-4.062-13.176-2.693c-4.05,1.267-7.012,4.313-8.338,8.581  c-2.255,7.259-0.859,17.919,0.616,29.202c1.087,8.302,2.21,16.885,1.785,24.195c-0.414,7.118-2.448,17.478-4.415,27.498  c-2.736,13.928-5.564,28.329-4.172,34.302L1224.929,857.306z"/><path fill="#195494" d="M1167.052,768.235c5.809-2.396,12.567-13.757,18.915-13.49c1.449,7.229-9.261,7.54-13.282,11.83  c-3.327,4.425,12.467,6.849,19.289,2.319c5.721-3.47,3.281-11.683,9.42-23.974c5.097-10.58,8.918-10.926,9.329-17.252  c0.749-11.575-11.27-22.07-12.546-21.314c-0.515,0.306,0.953,2.286,1.594,7.489c0.459,0.425,0.461,20.914-4.86,14.198  c-3.728-8.501,5.936-14.83-0.568-24.468c-4.879-7.224-17.39-6.952-17.656-6.053c6.352,1.453,10.441,17.725,7.725,24.288  c-1.954,3.802-3.538,0.615-4.108-3.215c-3.545-12.351-4.557-19.106-13.677-24.021c-11.18-6.025-19.897,4.637-33.978,7.121  c0,0-3.208,17.243,3.777,26.721c6.723,9.121,15.979,0.412,23.358,2.54c3.285,0.609,4.142,4.809,2.118,6.862  c-2.825,4.175-9.462,4.604-14.251,4.861c-7.935,0.422-10.775-1.246-11.662,0.234c-2.477,3.841,9.978,14.278,16.67,11.807  c8.489,0.581,17.801-13.834,26.376-10.224c0.279,6.738-16.515,14.408-23.753,14.966c-3.842-0.141-6.464-1.842-6.822-1.245  C1150.309,761.936,1161.69,770.036,1167.052,768.235z"/><path fill="#8DB5E0" d="M1181.306,766.813c1.945-0.259,3.802-1.002,5.403-2.133c1.554-1.096,2.778-2.548,3.715-4.194  c1.024-1.806,1.731-3.76,2.489-5.687c0.825-2.085,1.758-4.132,2.824-6.105c0.484-0.89,0.961-1.801,1.541-2.633  c0.482-0.693,1.114-1.356,1.999-1.452c0.01-0.001,0.013-0.009,0.023-0.01c0.136,0.078,0.275,0.147,0.41,0.229  c0.452,0.268,0.9,0.548,1.335,0.848c0.026-0.071,0.058-0.134,0.092-0.202c-0.792-0.533-1.617-1.026-2.467-1.466  c-0.003-0.006-0.005-0.011-0.01-0.013c-0.302-0.279-0.551-0.628-0.759-0.986c-0.197-0.335-0.401-0.729-0.398-1.126  c0.009-0.593,0.245-1.188,0.462-1.733c0.222-0.544,0.457-1.088,0.704-1.622c1.732-3.765,3.982-7.313,5.228-11.288  c1.021-3.268,1.374-6.868,0.111-10.122c-0.051-0.131-0.252-0.04-0.199,0.096c0.733,1.897,0.915,3.949,0.716,5.967  c-0.39,3.948-2.154,7.542-3.945,11.027c-0.994,1.93-2.008,3.852-2.822,5.867c-0.298,0.742-0.647,1.61-0.358,2.401  c0.158,0.443,0.417,0.879,0.725,1.259c-2.418-1.176-5.001-1.962-7.565-2.75c-0.118-0.038-0.241-0.074-0.359-0.112  c0,0,0,0-0.003-0.006c-1.349-1.43-2.187-3.253-2.625-5.159c-0.896-3.886-0.008-7.78,1.002-11.549  c0.277-1.031,0.559-2.065,0.82-3.102c0.246-0.972,0.488-1.959,0.595-2.963c0.175-1.706-0.111-3.576-1.384-4.829  c-0.1-0.098-0.273,0.042-0.169,0.141c1.602,1.574,1.533,3.967,1.116,6.014c-0.832,4.064-2.429,8.001-2.579,12.191  c-0.115,3.218,0.666,6.671,2.825,9.138c-2.402-0.743-4.806-1.529-7.045-2.692c-1.224-0.638-2.366-1.397-3.451-2.233  c-0.007-0.007-0.008-0.017-0.019-0.026c-0.013-0.005-0.023-0.013-0.04-0.019c-0.981-0.761-1.918-1.581-2.824-2.432  c-1.508-1.418-2.948-2.905-4.44-4.34c-0.886-1.99-1.255-4.177-1.47-6.331c-0.391-3.866-0.105-7.876-1.372-11.606  c-1.131-3.319-3.903-6.512-7.633-6.639c-0.143-0.006-0.162,0.213-0.018,0.219c2.074,0.069,3.929,1.177,5.289,2.705  c2.628,2.958,3.047,7.059,3.235,10.848c0.173,3.486,0.252,7.15,1.575,10.43c-0.192-0.182-0.382-0.369-0.578-0.553  c-1.951-1.8-4.062-3.381-6.356-4.714c-4.702-2.731-9.88-4.49-15.01-6.217c-0.132-0.048-0.208,0.159-0.075,0.208  c0.628,0.21,1.256,0.419,1.883,0.633c4.933,1.684,9.895,3.509,14.317,6.312c-1.387-0.28-2.854,0.06-4.208,0.361  c-1.697,0.378-3.684,0.743-5.197-0.366c-0.115-0.084-0.242,0.095-0.127,0.179c1.415,1.041,3.288,0.85,4.907,0.504  c1.685-0.358,3.529-0.908,5.213-0.285c0.008,0.003,0.011-0.006,0.02-0.002c0,0,0,0,0.004,0.001c2.189,1.455,4.142,3.185,6.02,5.019  c1.797,1.758,3.536,3.574,5.447,5.214c0.183,0.156,0.371,0.309,0.555,0.461c-1.899-0.691-4.08-0.349-5.925,0.421  c-2.132,0.891-3.898,2.451-5.623,3.95c-1.712,1.49-3.478,2.871-5.451,3.993c-3.8,2.157-8.083,3.434-12.445,3.701  c-0.142,0.005-0.101,0.226,0.039,0.216c2.377-0.144,4.732-0.588,7-1.311c2.035-0.649,3.997-1.522,5.841-2.602  c1.902-1.12,3.602-2.478,5.265-3.921c1.732-1.506,3.513-3.055,5.675-3.912c1.997-0.79,4.416-1.064,6.353,0.04  c1.594,1.219,3.302,2.254,5.153,3.064c2.543,1.104,5.221,1.849,7.86,2.674c0.227,0.073,0.45,0.145,0.672,0.217  c-1.505,0.237-2.932,0.919-4.165,1.804c-1.327,0.949-2.427,2.178-3.507,3.391c-1.116,1.261-2.245,2.503-3.487,3.643  c-2.407,2.214-5.1,4.102-7.998,5.611c-0.127,0.067-0.033,0.27,0.09,0.202c1.589-0.83,3.124-1.77,4.575-2.814  c1.305-0.938,2.55-1.96,3.719-3.055c1.199-1.127,2.291-2.346,3.381-3.573c1.095-1.226,2.221-2.46,3.587-3.39  c1.267-0.863,2.729-1.509,4.267-1.658c0.006-0.003,0.003-0.009,0.007-0.007c1.967,0.646,3.901,1.383,5.719,2.364  c-0.767,0.172-1.359,0.74-1.813,1.369c-0.672,0.916-1.2,1.953-1.737,2.951c-1.033,1.935-1.946,3.926-2.75,5.968  c-0.773,1.968-1.49,3.975-2.56,5.807c-0.973,1.665-2.248,3.103-3.853,4.171c-1.506,1.002-3.233,1.655-5.024,1.895  C1181.128,766.617,1181.168,766.833,1181.306,766.813z"/><path fill="#195494" d="M1293.731,720.999c-6.213,0.941-15.486,10.363-21.587,8.59c0.317-7.366,10.792-5.114,15.72-8.322  c4.286-3.504-10.474-9.624-18.179-6.852c-6.384,2.006-5.973,10.564-14.865,21.035c-7.472,9.059-11.266,8.484-13.174,14.53  c-3.488,11.063,5.682,24.122,7.101,23.691c0.573-0.174-0.38-2.447,0.238-7.653c-0.344-0.522,4.54-20.421,8.105-12.63  c1.593,9.145-9.301,12.987-5.283,23.897c3.015,8.179,15.23,10.898,15.703,10.089c-5.823-2.926-5.913-19.704-1.71-25.43  c2.804-3.227,3.583,0.247,3.223,4.102c0.498,12.84-0.131,19.642,7.554,26.59c9.42,8.517,20.428,0.242,34.696,1.188  c0,0,7.227-15.981,2.703-26.851c-4.354-10.461-15.42-4.21-22.078-8.037c-3.045-1.375-2.875-5.658-0.42-7.169  c3.739-3.38,10.287-2.215,14.999-1.322c7.807,1.483,10.167,3.78,11.381,2.554c3.322-3.139-6.285-16.246-13.374-15.441  c-8.105-2.589-20.585,9.189-28.053,3.639c1.337-6.61,19.475-10.055,26.636-8.87c3.698,1.053,5.838,3.33,6.329,2.836  C1308.489,731.109,1299.368,720.529,1293.731,720.999z"/><path fill="#8DB5E0" d="M1279.549,718.982c-1.951-0.212-3.931,0.065-5.755,0.783c-1.771,0.694-3.305,1.812-4.608,3.187  c-1.425,1.51-2.578,3.239-3.773,4.93c-1.299,1.828-2.693,3.593-4.199,5.255c-0.682,0.749-1.363,1.52-2.124,2.189  c-0.634,0.558-1.405,1.051-2.287,0.933c-0.01-0.001-0.015,0.006-0.025,0.005c-0.113-0.108-0.232-0.209-0.343-0.321  c-0.375-0.368-0.743-0.747-1.094-1.141c-0.042,0.062-0.088,0.116-0.137,0.174c0.642,0.706,1.327,1.382,2.046,2.012  c0.001,0.006,0.002,0.012,0.006,0.015c0.227,0.343,0.385,0.741,0.502,1.138c0.112,0.372,0.216,0.803,0.118,1.188  c-0.15,0.574-0.521,1.096-0.862,1.573c-0.345,0.476-0.703,0.947-1.07,1.408c-2.58,3.243-5.611,6.153-7.769,9.716  c-1.771,2.93-2.972,6.343-2.522,9.803c0.017,0.139,0.236,0.099,0.217-0.046c-0.259-2.016,0.053-4.053,0.728-5.965  c1.321-3.742,3.89-6.811,6.46-9.769c1.425-1.637,2.869-3.263,4.14-5.025c0.466-0.649,1.012-1.409,0.92-2.247  c-0.048-0.468-0.195-0.953-0.404-1.396c2.068,1.719,4.389,3.098,6.691,4.474c0.105,0.065,0.216,0.129,0.321,0.194  c0,0,0,0,0.001,0.006c0.969,1.71,1.349,3.681,1.319,5.636c-0.057,3.987-1.847,7.557-3.727,10.977  c-0.515,0.935-1.036,1.872-1.535,2.817c-0.47,0.885-0.941,1.786-1.284,2.735c-0.577,1.616-0.745,3.5,0.192,5.02  c0.074,0.119,0.276,0.025,0.197-0.097c-1.18-1.91-0.542-4.218,0.35-6.106c1.777-3.749,4.267-7.191,5.412-11.225  c0.879-3.097,0.944-6.638-0.564-9.549c2.156,1.294,4.303,2.631,6.2,4.294c1.036,0.912,1.964,1.921,2.819,2.992  c0.005,0.008,0.004,0.018,0.012,0.03c0.011,0.007,0.02,0.018,0.034,0.028c0.771,0.973,1.485,1.992,2.163,3.036  c1.126,1.737,2.17,3.524,3.277,5.274c0.387,2.144,0.223,4.355-0.081,6.499c-0.542,3.848-1.776,7.674-1.435,11.598  c0.307,3.492,2.238,7.255,5.829,8.268c0.138,0.039,0.208-0.169,0.07-0.208c-1.997-0.562-3.535-2.081-4.491-3.889  c-1.847-3.499-1.275-7.582-0.555-11.306c0.664-3.427,1.46-7.004,0.958-10.505c0.143,0.223,0.283,0.45,0.429,0.675  c1.466,2.213,3.139,4.252,5.049,6.094c3.915,3.774,8.524,6.716,13.094,9.616c0.117,0.079,0.24-0.105,0.123-0.183  c-0.56-0.353-1.12-0.707-1.677-1.065c-4.389-2.811-8.772-5.767-12.399-9.544c1.28,0.603,2.786,0.622,4.172,0.653  c1.738,0.038,3.756,0.157,4.959,1.595c0.092,0.109,0.257-0.035,0.166-0.144c-1.126-1.349-2.99-1.609-4.645-1.66  c-1.722-0.054-3.644,0.04-5.131-0.966c-0.007-0.005-0.012,0.002-0.02-0.003c0,0,0,0-0.004-0.003c-1.779-1.935-3.263-4.081-4.65-6.31  c-1.326-2.136-2.581-4.315-4.046-6.362c-0.14-0.195-0.287-0.388-0.43-0.58c1.679,1.125,3.88,1.312,5.854,1.004  c2.283-0.357,4.37-1.451,6.402-2.495c2.018-1.039,4.062-1.959,6.245-2.579c4.205-1.188,8.669-1.408,12.969-0.627  c0.139,0.03,0.152-0.196,0.014-0.219c-2.343-0.427-4.736-0.558-7.111-0.396c-2.131,0.145-4.244,0.525-6.293,1.135  c-2.114,0.635-4.09,1.548-6.048,2.552c-2.041,1.049-4.139,2.13-6.443,2.446c-2.128,0.291-4.543-0.02-6.16-1.554  c-1.257-1.564-2.67-2.977-4.274-4.205c-2.206-1.679-4.629-3.041-6.996-4.471c-0.203-0.126-0.402-0.248-0.601-0.371  c1.517,0.129,3.066-0.193,4.475-0.759c1.515-0.605,2.876-1.536,4.215-2.457c1.385-0.958,2.777-1.895,4.255-2.706  c2.866-1.576,5.931-2.768,9.105-3.542c0.14-0.034,0.096-0.254-0.04-0.218c-1.741,0.427-3.456,0.973-5.114,1.642  c-1.491,0.6-2.944,1.295-4.341,2.08c-1.433,0.808-2.784,1.731-4.136,2.664c-1.355,0.93-2.743,1.86-4.292,2.437  c-1.437,0.536-3.01,0.815-4.539,0.594c-0.007,0.001-0.005,0.007-0.009,0.005c-1.756-1.096-3.459-2.274-4.99-3.66  c0.786,0.016,1.496-0.395,2.087-0.896c0.87-0.729,1.631-1.611,2.39-2.452c1.464-1.632,2.826-3.349,4.094-5.139  c1.22-1.727,2.395-3.506,3.871-5.029c1.341-1.385,2.923-2.478,4.737-3.132c1.701-0.613,3.534-0.836,5.331-0.642  C1279.675,719.214,1279.688,718.995,1279.549,718.982z"/><path fill="#4381D1" d="M1183.305,693.631c5.541,2.964,18.608,0.965,22.435,6.036c-4.662,5.712-11.707-2.362-17.575-2.741  c-5.531,0.243,2.632,13.979,10.464,16.369c6.315,2.213,11.107-4.889,24.498-7.957c11.408-2.786,14.103-0.054,19.25-3.757  c9.415-6.776,9.884-22.725,8.489-23.23c-0.563-0.204-1.161,2.188-4.77,5.988c-0.037,0.624-15.858,13.643-14.052,5.268  c4.197-8.28,15.223-4.839,18.534-15.984c2.479-8.357-5.68-17.846-6.544-17.48c2.914,5.829-7.054,19.324-13.848,21.397  c-4.177,0.907-2.723-2.341-0.127-5.215c7.285-10.585,11.859-15.658,9.86-25.823c-2.45-12.461-16.222-12.419-27.086-21.716  c0,0-15.354,8.478-18.235,19.894c-2.772,10.986,9.834,12.601,12.878,19.652c1.616,2.924-1.083,6.253-3.954,5.995  c-5.018,0.471-9.567-4.382-12.808-7.918c-5.367-5.86-5.884-9.112-7.59-8.857c-4.54,0.527-4.687,16.777,1.473,20.374  c4.945,6.925,21.992,4.957,24.653,13.873c-5.027,4.496-21.619-3.599-26.648-8.835c-2.332-3.057-2.684-6.162-3.373-6.059  C1177.531,676.7,1178.507,690.635,1183.305,693.631z"/><path fill="#DAF2EE" d="M1193.459,703.735c1.436,1.337,3.189,2.3,5.079,2.817c1.834,0.504,3.733,0.526,5.599,0.205  c2.046-0.357,4.004-1.052,5.973-1.691c2.135-0.688,4.307-1.267,6.509-1.698c0.995-0.192,2.001-0.402,3.012-0.483  c0.842-0.068,1.754-0.001,2.39,0.621c0.007,0.007,0.016,0.004,0.023,0.011c0.027,0.154,0.061,0.306,0.084,0.462  c0.08,0.519,0.148,1.043,0.193,1.569c0.071-0.025,0.14-0.04,0.214-0.057c-0.092-0.95-0.236-1.901-0.435-2.837  c0.003-0.006,0.005-0.012,0.004-0.016c0.024-0.41,0.135-0.824,0.279-1.212c0.133-0.365,0.307-0.773,0.617-1.022  c0.464-0.37,1.073-0.566,1.632-0.745c0.561-0.175,1.13-0.338,1.699-0.487c4.008-1.054,8.178-1.571,12.039-3.135  c3.172-1.288,6.177-3.303,7.887-6.344c0.069-0.123-0.13-0.221-0.201-0.093c-0.999,1.771-2.469,3.216-4.153,4.344  c-3.297,2.207-7.193,3.128-11.022,3.96c-2.122,0.459-4.251,0.896-6.323,1.548c-0.762,0.24-1.655,0.523-2.081,1.249  c-0.242,0.404-0.414,0.881-0.512,1.36c-0.628-2.614-1.662-5.108-2.683-7.588c-0.045-0.115-0.096-0.233-0.141-0.348  c0,0,0,0,0.003-0.006c0.248-1.95,1.122-3.756,2.316-5.305c2.432-3.16,6.003-4.949,9.556-6.564c0.972-0.441,1.949-0.88,2.915-1.338  c0.907-0.428,1.823-0.868,2.666-1.423c1.429-0.949,2.692-2.359,2.85-4.136c0.012-0.14-0.206-0.185-0.216-0.041  c-0.198,2.237-2.09,3.705-3.935,4.683c-3.667,1.94-7.722,3.207-11.053,5.754c-2.557,1.955-4.729,4.753-5.263,7.988  c-0.952-2.327-1.873-4.683-2.397-7.151c-0.285-1.351-0.425-2.715-0.468-4.084c0.001-0.009,0.008-0.017,0.008-0.031  c-0.004-0.012-0.005-0.026-0.011-0.043c-0.036-1.241,0.003-2.485,0.085-3.727c0.137-2.065,0.37-4.122,0.53-6.186  c0.974-1.949,2.428-3.623,3.955-5.158c2.737-2.759,6.015-5.085,8.09-8.434c1.845-2.981,2.549-7.151,0.278-10.112  c-0.087-0.114-0.267,0.01-0.18,0.125c1.264,1.646,1.588,3.782,1.271,5.803c-0.614,3.909-3.516,6.837-6.321,9.39  c-2.583,2.348-5.361,4.737-7.054,7.843c0.019-0.264,0.042-0.53,0.06-0.798c0.15-2.65,0.03-5.284-0.398-7.904  c-0.878-5.366-2.81-10.482-4.735-15.54c-0.047-0.133-0.255-0.06-0.208,0.074c0.237,0.618,0.474,1.237,0.707,1.856  c1.834,4.88,3.577,9.87,4.222,15.066c-0.665-1.249-1.859-2.165-2.952-3.02c-1.37-1.07-2.916-2.373-3.019-4.246  c-0.008-0.142-0.227-0.126-0.219,0.016c0.095,1.754,1.433,3.079,2.728,4.11c1.347,1.073,2.943,2.148,3.533,3.844  c0.003,0.008,0.012,0.005,0.014,0.014c0,0,0,0,0.002,0.004c0.268,2.615,0.172,5.222-0.051,7.837  c-0.216,2.505-0.514,5.001-0.567,7.519c-0.004,0.24-0.003,0.483-0.003,0.721c-0.672-1.906-2.323-3.373-4.089-4.308  c-2.042-1.081-4.369-1.453-6.622-1.832c-2.238-0.375-4.427-0.862-6.547-1.672c-4.08-1.565-7.788-4.061-10.765-7.259  c-0.094-0.107-0.239,0.065-0.142,0.167c1.622,1.744,3.46,3.281,5.46,4.573c1.795,1.159,3.715,2.119,5.721,2.857  c2.073,0.756,4.202,1.208,6.372,1.574c2.264,0.38,4.591,0.771,6.626,1.896c1.879,1.041,3.628,2.735,4.005,4.932  c0.072,2.005,0.357,3.982,0.908,5.926c0.763,2.665,1.889,5.207,2.928,7.769c0.088,0.222,0.174,0.44,0.26,0.657  c-1.139-1.011-2.572-1.68-4.039-2.07c-1.576-0.422-3.224-0.491-4.847-0.555c-1.683-0.061-3.359-0.143-5.028-0.378  c-3.239-0.453-6.408-1.332-9.414-2.611c-0.132-0.057-0.229,0.146-0.099,0.198c1.651,0.7,3.351,1.288,5.08,1.745  c1.553,0.411,3.133,0.724,4.722,0.931c1.632,0.21,3.266,0.279,4.908,0.341c1.642,0.067,3.31,0.151,4.897,0.616  c1.471,0.431,2.899,1.148,3.992,2.241c0.006,0.003,0.008-0.003,0.01,0.001c0.751,1.93,1.411,3.892,1.808,5.918  c-0.62-0.483-1.435-0.579-2.209-0.531c-1.134,0.063-2.271,0.315-3.382,0.534c-2.15,0.431-4.269,0.992-6.356,1.667  c-2.011,0.653-4.016,1.375-6.111,1.712c-1.904,0.307-3.824,0.235-5.669-0.326c-1.73-0.526-3.332-1.444-4.656-2.676  C1193.498,703.473,1193.355,703.64,1193.459,703.735z"/><path fill="#D94559" d="M1247.045,841.104c-0.253,3.253-4.541,29.612-4.938,34.679h-37.814c-0.461-5.324-5.156-31.199-5.453-34.679  H1247.045z"/><path fill="#C43348" d="M1198.839,841.105c0.043,0.502,0.178,2.064,0.378,4.378h14.558c13.236,0,22.682,11.236,22.629,24.473  c-0.012,2.905-1.175,4.666-2.675,5.828h8.377c0.397-5.067,4.686-31.426,4.939-34.679H1198.839z"/><path fill="#D94559" d="M1246.101,841.106h-46.317c-3.108,0-5.627-2.044-5.627-4.565l0,0c0-2.521,2.52-4.564,5.627-4.564h46.317  c3.108,0,5.628,2.043,5.628,4.564l0,0C1251.729,839.063,1249.209,841.106,1246.101,841.106z"/><path fill="#2860A8" d="M342.049,492.772v345.955c-40.155,0-76.536-16.228-102.899-42.503  c-41.82-41.656-42.89-93.299-42.905-103.018c7.371-13.865,16.867-36.083,19.736-64.75c4.77-47.928-11.889-84.888-20.048-100.388  c21.98-4.889,48.997-17.061,76.58-35.162l69.164-0.134H342.049z"/><path fill="#9BBDEB" d="M342.049,509.759v311.982c-34.33,0-66.593-13.33-90.921-37.554c-31.981-31.877-37.123-70.903-37.792-87.013  c10.655-21.192,17.224-43.707,19.557-67.039c3.641-36.603-3.864-67.901-13.286-91.308c18.294-6.465,38.194-16.377,57.929-28.935  L342.049,509.759z"/><path fill="#B4D2FA" d="M342.049,518.75v294.015c-31.996-0.015-62.121-12.454-84.798-35.043  c-28.816-28.712-34.24-63.844-35.162-79.389c10.418-21.222,16.883-43.781,19.201-67.069c2.943-29.425-0.743-58.568-10.967-86.775  c16.095-6.301,33.23-15.069,50.053-25.621L342.049,518.75z"/><polygon fill="#FFF" points="342.049 658.282 342.049 701.692 279.334 665.014 303.454 628.53 340.592 660.63"/><path fill="#2860A8" d="M487.838,692.671c0.03,9.704-0.848,61.362-42.503,103.167c-26.335,26.423-62.759,42.816-103.018,42.89  h-0.268v-16.987h0.238c34.404-0.059,66.727-13.524,91.01-37.896c31.862-31.982,36.856-71.037,37.48-87.161  c-10.745-21.133-17.403-43.633-19.81-66.95c-3.79-36.603,3.612-67.931,12.929-91.367c-18.309-6.391-38.237-16.229-58.033-28.727  l-63.814,0.119v-16.987l68.778-0.134c27.657,18.012,54.72,30.079,76.714,34.879c-8.114,15.545-24.625,52.55-19.676,100.462  C470.837,656.647,480.422,678.835,487.838,692.671z"/><path fill="#8FB4E6" d="M470.777,696.684c-0.625,16.124-5.618,55.18-37.48,87.161c-24.283,24.372-56.606,37.837-91.01,37.896h-0.238  v-8.976h0.223c32.085-0.074,62.224-12.617,84.873-35.355c28.712-28.816,34.017-63.978,34.879-79.538  c-10.507-21.177-17.061-43.707-19.468-66.994c-3.032-29.396,0.55-58.569,10.655-86.805c-16.125-6.242-33.274-14.951-50.141-25.442  l-61.021,0.119v-8.991l63.814-0.119c19.796,12.498,39.724,22.336,58.033,28.727c-9.317,23.436-16.719,54.764-12.929,91.367  C453.375,653.051,460.033,675.551,470.777,696.684z"/><path fill="#A7C9F5" d="M462.024,697.872c-0.862,15.56-6.167,50.722-34.879,79.538c-22.649,22.738-52.788,35.281-84.873,35.355  h-0.223V701.692l0.06,0.03l82.212-89.138l-36.722-27.791l-45.55,73.489V518.75l61.021-0.119  c16.868,10.492,34.017,19.201,50.141,25.442c-10.105,28.236-13.687,57.409-10.655,86.805  C444.963,654.165,451.517,676.695,462.024,697.872z"/><polygon fill="#F0F2FA" points="424.321 612.584 342.108 701.721 342.049 701.692 342.049 658.282 387.599 584.793"/><path fill="#86B8F5" d="M890.057,580.092c0-1.28-0.026-2.587-0.079-3.841c-0.078-2.299-0.209-4.6-0.393-6.873  c-0.026-0.575-0.053-1.124-0.105-1.699c-0.393-4.39-0.919-8.754-1.654-13.041c-1.574-9.564-3.962-18.842-7.087-27.753  c-0.893-2.64-1.89-5.202-2.914-7.763c-0.42-0.993-0.841-1.986-1.26-2.979c-1.47-3.424-3.045-6.768-4.725-10.061l-1.576-2.98  c-5.643-10.532-12.416-20.41-20.159-29.453c-0.867-1.02-1.757-2.039-2.651-3.058c-2.336-2.64-4.803-5.201-7.324-7.683  c-1.837-1.855-3.727-3.633-5.67-5.358c-29.872-26.917-69.483-43.33-112.874-43.33c-43.365,0-82.949,16.386-112.848,43.33  c-1.942,1.725-3.833,3.503-5.696,5.358c-2.521,2.456-4.962,5.044-7.324,7.683c-0.893,1.019-1.785,2.038-2.652,3.058  c-7.718,9.042-14.49,18.921-20.133,29.453l-1.576,2.98c-1.68,3.293-3.281,6.637-4.725,10.061c-0.419,0.993-0.841,1.986-1.26,2.979  c-1.05,2.561-2.021,5.123-2.94,7.763c-3.124,8.911-5.513,18.189-7.088,27.753c-0.709,4.287-1.259,8.651-1.626,13.041  c-0.053,0.576-0.08,1.124-0.106,1.699c-0.183,2.273-0.315,4.574-0.393,6.873c-0.053,1.255-0.079,2.561-0.079,3.841  c-0.027,0.628-0.027,1.255-0.027,1.882c0,2.43,0.053,4.887,0.158,7.291c0.184,4.704,0.603,9.33,1.182,13.904  c0.551,4.389,1.286,8.754,2.178,13.04c0.446,2.143,0.946,4.261,1.47,6.377c0.893,3.632,1.943,7.213,3.071,10.741  c1.786,5.461,3.833,10.819,6.144,16.046c0.34,0.783,0.708,1.568,1.075,2.352c1.68,3.659,3.492,7.213,5.408,10.688  c0.419,0.784,0.866,1.568,1.339,2.326c2.152,3.789,4.462,7.5,6.93,11.081c2.494,3.685,5.118,7.266,7.927,10.741  c3.833,4.782,7.926,9.356,12.285,13.694c4.62,4.625,9.502,8.99,14.648,13.041c28.706,22.737,64.992,36.339,104.396,36.398  c0.093,0.002,0.184,0.012,0.277,0.012c0.105,0,0.209-0.013,0.313-0.013c39.405-0.076,75.666-13.672,104.356-36.397  c5.145-4.051,10.029-8.416,14.649-13.041c4.356-4.338,8.453-8.912,12.284-13.694c2.809-3.476,5.435-7.056,7.927-10.741  c2.469-3.581,4.778-7.292,6.931-11.081c0.472-0.758,0.919-1.542,1.339-2.326c1.915-3.476,3.727-7.029,5.408-10.688  c0.34-0.784,0.708-1.569,1.049-2.352c2.31-5.227,4.357-10.584,6.143-16.046c1.129-3.529,2.178-7.109,3.071-10.741  c0.525-2.117,1.024-4.234,1.47-6.377c0.893-4.286,1.628-8.651,2.179-13.04c0.577-4.574,0.998-9.2,1.182-13.904  c0.131-2.404,0.184-4.861,0.184-7.291C890.084,581.347,890.084,580.72,890.057,580.092z M871.63,554.638  c0.788,4.287,1.392,8.625,1.811,13.041c0.054,0.576,0.105,1.124,0.13,1.699h-45.764c-0.731-14.636-2.636-28.902-5.687-42.493h41.608  C867.22,535.77,869.898,545.047,871.63,554.638z M812.946,582.76c0,13.786-1.144,27.13-3.246,39.828h-31.647  c1.104-12.997,1.679-26.475,1.679-40.207c0-0.765-0.016-1.523-0.019-2.288h33.191C812.914,580.984,812.946,581.865,812.946,582.76z   M630.255,582.76c0-0.894,0.032-1.776,0.042-2.667h33.19c-0.003,0.765-0.018,1.523-0.018,2.288c0,13.732,0.574,27.21,1.679,40.207  H633.5C631.399,609.889,630.255,596.545,630.255,582.76z M766.552,582.38c0,13.888-0.655,27.381-1.85,40.207h-36.559v-42.495h38.391  C766.538,580.857,766.552,581.614,766.552,582.38z M676.649,582.38c0-0.766,0.014-1.523,0.018-2.288h38.39v42.495h-36.559  C677.305,609.761,676.649,596.268,676.649,582.38z M728.144,439.113c6.737,3.326,13.037,11.677,18.51,23.795h-18.51V439.113z   M715.057,439.113v23.795h-18.51C702.02,450.79,708.321,442.439,715.057,439.113z M715.057,473.649v42.493h-33.241  c2.65-16.115,6.213-30.532,10.457-42.493H715.057z M715.057,526.885v42.493h-38.209c0.432-14.859,1.589-29.157,3.364-42.493H715.057  z M715.057,633.328v42.493h-27.483c-3.346-12.571-6.05-26.925-7.93-42.493H715.057z M715.057,686.563v39.085  c-9.279-4.584-17.727-18.729-24.327-39.085H715.057z M728.144,725.647v-39.084h24.328  C745.871,706.92,737.424,721.065,728.144,725.647z M728.144,675.822v-42.493h35.414c-1.88,15.568-4.584,29.922-7.929,42.493H728.144  z M728.144,569.378v-42.493h34.846c1.775,13.337,2.931,27.634,3.364,42.493H728.144z M728.144,516.142v-42.493h22.785  c4.243,11.961,7.807,26.378,10.457,42.493H728.144z M765.77,473.649h18.899c7.7,12.177,14.122,26.534,18.886,42.493h-28.543  C772.716,500.79,769.623,486.454,765.77,473.649z M762.218,462.908c-3.143-8.719-6.598-16.277-10.304-22.612  c9.151,5.339,17.632,13.02,25.189,22.612H762.218z M691.287,440.295c-3.707,6.335-7.161,13.892-10.304,22.612h-14.886  C673.654,453.316,682.138,445.634,691.287,440.295z M677.431,473.649c-3.853,12.806-6.947,27.14-9.244,42.493h-28.542  c4.762-15.959,11.186-30.317,18.887-42.493H677.431z M666.724,526.885c-1.651,13.582-2.682,27.85-3.069,42.493h-33.022  c0.794-14.887,2.903-29.152,6.129-42.493H666.724z M666.206,633.328c1.664,15.084,4.069,29.378,7.162,42.493h-23.638  c-6.027-12.698-10.856-27.008-14.194-42.493H666.206z M676.125,686.563c1.016,3.632,2.079,7.173,3.209,10.574  c3.754,11.307,8.013,20.812,12.643,28.473c-14.078-8.006-26.606-21.543-36.64-39.047H676.125z M751.225,725.609  c4.63-7.66,8.888-17.167,12.642-28.472c1.129-3.401,2.192-6.942,3.208-10.574h20.789  C777.831,704.066,765.303,717.603,751.225,725.609z M769.831,675.822c3.092-13.115,5.498-27.409,7.162-42.493h30.669  c-3.337,15.485-8.167,29.796-14.193,42.493H769.831z M779.544,569.378c-0.387-14.643-1.417-28.911-3.068-42.493h29.963  c3.227,13.341,5.333,27.606,6.129,42.493H779.544z M851.89,503.102c0.604,0.993,1.182,1.986,1.759,2.98  c1.916,3.266,3.701,6.637,5.382,10.061h-39.624c-4.229-15.322-9.931-29.638-17.005-42.493h25.969  C837.374,482.43,845.274,492.334,851.89,503.102z M816.112,462.908h-20.177c-5.482-8.362-11.439-15.698-17.794-21.921  c10.927,4.358,21.253,9.914,30.778,16.563C811.36,459.249,813.776,461.026,816.112,462.908z M634.278,457.55  c9.527-6.652,19.855-12.206,30.784-16.566c-6.356,6.224-12.313,13.561-17.796,21.924h-20.18  C629.422,461.026,631.837,459.249,634.278,457.55z M589.523,506.082c0.577-0.994,1.18-1.987,1.785-2.98  c6.614-10.793,14.542-20.672,23.546-29.453h25.946c-7.073,12.855-12.776,27.171-17.005,42.493h-39.653  C585.821,512.719,587.606,509.348,589.523,506.082z M569.729,567.679c0.421-4.416,1.025-8.754,1.837-13.041  c1.734-9.591,4.411-18.868,7.902-27.753h41.613c-3.051,13.591-4.955,27.857-5.688,42.493h-45.794  C569.626,568.803,569.677,568.254,569.729,567.679z M573.011,616.21c-1.024-4.259-1.81-8.625-2.441-13.04  c-0.656-4.574-1.076-9.2-1.313-13.904c-0.104-2.43-0.183-4.861-0.183-7.291c0-0.628,0-1.255,0.025-1.882h45.972  c-0.009,0.891-0.04,1.775-0.04,2.667c0,13.592,1.031,26.942,3.022,39.828h-43.414C574.035,620.47,573.51,618.353,573.011,616.21z   M593.827,664.741c-0.525-0.758-1.024-1.542-1.522-2.326c-2.179-3.476-4.254-7.029-6.143-10.688  c-0.42-0.784-0.814-1.569-1.208-2.352c-2.599-5.201-4.908-10.558-6.904-16.046h41.928c3.02,15.048,7.386,29.338,13.014,42.493  h-31.159C598.972,672.241,596.321,668.557,593.827,664.741z M626.088,700.257c-5.276-4.235-10.263-8.808-14.91-13.694h26.806  c2.267,4.481,4.681,8.814,7.26,12.957c5.276,8.476,11.04,15.928,17.182,22.35c-5.956-2.504-11.733-5.356-17.28-8.572  C638.451,709.43,632.073,705.066,626.088,700.257z M817.109,700.257c-5.985,4.808-12.363,9.172-19.059,13.041  c-5.543,3.221-11.324,6.077-17.289,8.585c6.147-6.426,11.916-13.881,17.193-22.363c2.58-4.143,4.993-8.476,7.261-12.957h26.803  C827.373,691.45,822.385,696.023,817.109,700.257z M858.243,649.374c-0.395,0.783-0.788,1.568-1.207,2.352  c-1.891,3.659-3.965,7.213-6.144,10.688c-0.497,0.784-0.997,1.568-1.521,2.326c-2.494,3.816-5.145,7.5-8.007,11.081h-31.155  c5.627-13.155,9.994-27.445,13.014-42.493h41.924C863.151,638.816,860.841,644.173,858.243,649.374z M825.149,622.587  c1.99-12.886,3.021-26.236,3.021-39.828c0-0.893-0.031-1.776-0.04-2.667h45.941c0.028,0.628,0.028,1.255,0.028,1.882  c0,2.43-0.054,4.861-0.158,7.291c-0.21,4.704-0.656,9.33-1.313,13.904c-0.603,4.415-1.418,8.781-2.415,13.04  c-0.499,2.143-1.05,4.261-1.654,6.377H825.149z"/><path fill="#8FB4E6" d="M955.367,537.292c2.503-6.654,9.926-10.02,16.58-7.517s10.02,9.926,7.517,16.58  c-2.503,6.654-9.926,10.02-16.58,7.517C956.23,551.369,952.864,543.946,955.367,537.292z"/><path fill="#8FB4E6" d="M999.812,540.254c-1.299-0.489-2.31-1.638-2.554-3.106c-0.108-0.601-2.895-15.275-19.931-21.682  c-17.19-6.465-29.452,1.945-29.966,2.306c-1.812,1.274-4.322,0.847-5.601-0.953c-1.282-1.804-0.874-4.3,0.923-5.592  c0.649-0.466,16.128-11.32,37.476-3.292c21.503,8.087,24.899,27.086,25.033,27.89c0.366,2.192-1.115,4.264-3.305,4.629  C1001.163,540.576,1000.453,540.495,999.812,540.254z"/><path fill="#8FB4E6" d="M1020.686,528.175c-1.299-0.489-2.311-1.637-2.554-3.106c-0.17-0.969-4.483-24.147-31.321-34.24  c-26.993-10.152-46.235,3.147-47.043,3.717c-1.81,1.283-4.318,0.858-5.606-0.942c-1.287-1.804-0.877-4.306,0.922-5.599  c0.941-0.676,23.401-16.424,54.558-4.707c31.308,11.774,36.23,39.283,36.423,40.448c0.366,2.192-1.115,4.264-3.306,4.629  C1022.037,528.497,1021.327,528.416,1020.686,528.175z"/><path fill="#8FB4E6" d="M1037.587,515.232c-1.299-0.489-2.311-1.638-2.555-3.107c-0.212-1.235-5.65-30.684-39.713-43.494  c-34.218-12.868-58.604,4.033-59.626,4.759c-1.808,1.286-4.318,0.867-5.607-0.937c-1.289-1.804-0.879-4.308,0.922-5.602  c1.157-0.831,28.762-20.184,67.144-5.75c38.537,14.493,44.579,48.272,44.818,49.703c0.365,2.191-1.116,4.263-3.307,4.629  C1038.938,515.554,1038.228,515.473,1037.587,515.232z"/><path fill="#8FB4E6" d="M1057.214,504.184c-1.299-0.488-2.311-1.637-2.554-3.106c-0.27-1.58-7.153-39.087-50.505-55.391  c-43.504-16.361-75.487,5.871-75.806,6.098c-1.807,1.288-4.319,0.869-5.609-0.933c-1.291-1.804-0.88-4.311,0.921-5.605  c1.433-1.03,35.653-25.018,83.325-7.09c47.826,17.987,55.314,59.827,55.608,61.599c0.366,2.192-1.115,4.264-3.306,4.629  C1058.565,504.506,1057.855,504.425,1057.214,504.184z"/><path fill="#1E2030" d="M970.036,733.151c-0.103-0.123-0.272,0.052-0.175,0.174c3.748,4.676,0.919,10.957-1.16,15.654  c-1.096,2.476-1.476,5.083-1.762,7.753c-0.27,2.523-0.561,5.412-2.264,7.443c-1.779,2.122-4.763,3.071-7.246,4.059  c-0.198,0.079-0.126,0.39,0.091,0.328c2.444-0.69,4.925-1.556,6.988-3.082c0.989-0.731,1.968-1.505,2.604-2.572  c0.734-1.232,1.103-2.518,1.3-3.93c0.205-1.472,0.222-2.953,0.328-4.433c0.119-1.658,0.52-3.199,0.905-4.807  c0.693-2.893,1.872-5.686,2.258-8.646C972.267,738.299,971.893,735.369,970.036,733.151z"/><path fill="#1E2030" d="M979.365,702.93c-1.202-2.357-3.229-4.185-5.724-5.064c-3.716-1.31-7.571-0.94-11.401-0.44  c-0.161,0.021-0.168,0.275,0,0.258c3.191-0.31,6.493-0.657,9.638,0.166c2.608,0.682,5.227,2.466,6.229,5.054  c0.861,2.223,1.14,4.632,0.806,6.995c-0.371,2.621-1.572,5.064-2.718,7.416c-1.412,2.899-4.043,5.191-6.188,7.556  c-0.071,0.078,0.038,0.188,0.116,0.116c1.172-1.082,2.299-2.207,3.385-3.375c1.077-1.16,2.034-2.425,3.109-3.581  c1.982-2.133,3.254-4.688,3.701-7.569C980.709,707.944,980.54,705.234,979.365,702.93z"/><path fill="#1E2030" d="M977.602,702.986c-3.405-8.56-10.862-5.901-14.559-8.041c-3.696-2.14-5.779-7.588-17.575-6.291  c-2.345,0.258-5.567,1.569-8.797,3.76c-2.386,1.336-4.712,2.774-6.857,4.481c-3.087,2.456-6.191,5.674-7.877,9.29  c-1.645,3.529-1.915,7.616-4.014,10.942c-2.179,3.452-6.377,4.671-8.892,7.802c-2.506,3.12-4.17,7.073-3.597,11.107  c-0.31,1.015-0.552,2.113-0.693,3.331c-1.137,9.824,7.977,8.755,13.813,16.148c5.836,7.393,12.949,10.435,17.758,10.568  c4.809,0.133,28.934,9.569,29.712-9.206c0.548-13.226,13.23-12.938,4.009-31.615C970.036,725.263,981.007,711.547,977.602,702.986z   M924.198,712.325c-0.877,12.458-14.533,11.829-18.521,22.965c0.162-3.659,1.494-7.324,4.515-9.56  c3.024-2.238,6.664-3.609,8.994-6.7c2.254-2.991,2.784-6.843,3.776-10.353c0.551-1.947,1.178-3.807,2.205-5.557  c1.031-1.755,2.328-3.275,3.806-4.673c1.472-1.391,3.072-2.622,4.739-3.763C928.915,698.826,924.721,704.896,924.198,712.325z"/><path fill="#477EC7" d="M1024.697,860.982c0,0-2.451,19.605-2.451,20.658c0,0.353-8.257,0.925-19.695,1.196  c-22.898,0.534-58.551-0.173-66.327-6.46c-12.731-10.28-10.039-46.835-6.475-71.712c1.993-13.897,4.256-24.147,4.256-24.147  c2.369-16.033-3.489-37.939,14.529-27.05c24.395,20.191,8.693,94.693,16.002,98.235  C966.349,852.575,1011.921,858.651,1024.697,860.982z"/><path fill="#376EB8" d="M1002.55,882.835c-22.898,0.534-58.551-0.173-66.327-6.46c-12.731-10.28-10.039-46.835-6.475-71.712  l26.561-28.599c0,0,11.972,31.156,1.572,51.949s-23.891,23.741-18.71,28.742c5.174,5.001,32.246-2.647,34.796,3.234  c2.549,5.888,19.424-1.173,24.719,5.693C1000.972,868.645,1002.054,875.736,1002.55,882.835z"/><path fill="#FFD8D9" d="M480.825,833.084c1.613,7.241,28.89-13.406,41.322-10.856c6.802,1.407,20.198,9.937,28.525,13.251  c35.887,14.219,82.68,42.015,114.316,48.141c42.571,8.21,173.453-1.231,173.453-1.231l7.916-44.067c0,0-42.738-30.125-76.631-22.766  c-33.894,7.389-84.449,35.93-106.878,22.209c-14.688-8.972-68.958-21.872-105.227-26.681c-6.714-0.879-12.812-1.495-17.914-1.759  c0,0-5.797-18.198-12.307-19.664c-8.678-1.935-14.344,9.461-25.309,19.107C489.395,819.91,478.714,823.555,480.825,833.084z"/><path fill="#FAA61E" d="M846.356,838.324l-7.919,44.068c0,0-74.539,5.377-129.413,4.474c-17.838-0.286-33.592-1.233-44.038-3.249  c-2.858-0.549-5.896-1.248-9.084-2.076c-29.088-7.528-70.666-25.501-102.506-38.435c-5.324-2.166-8.031-8.114-6.166-13.559  l3.324-9.701l2.173-6.354c1.549-4.527,5.888-7.528,10.671-7.325c43.338,1.895,90.196,18.153,104.018,26.598  c9.197,5.625,24.064,4.264,40.233,0.353c23.252-5.617,49.204-16.521,64.876-19.477C799.814,808.492,846.356,838.324,846.356,838.324  z"/><path fill="#F0DCC0" d="M714.499,845.28l-5.475,41.586c-17.838-0.286-33.592-1.233-44.038-3.249  c-2.858-0.549-5.896-1.248-9.084-2.076c-0.842-0.759-14.379-17.823-17.913-33.908c-3.527-16.085,4.715-19.815-11.964-20.597  c-16.672-0.79-29.817-16.371-42.571-14.852c-10.385,1.233-26.38,11.228-32.9,7.663l2.173-6.354  c1.549-4.527,5.888-7.528,10.671-7.325c43.338,1.895,90.196,18.153,104.018,26.598c9.197,5.625,24.064,4.264,40.233,0.353  C711.325,839.663,714.499,845.28,714.499,845.28z"/><path fill="#FFD8D9" d="M668.711,878.49c35.887,17.769,123.671-1.804,169.263,3.385c1.788-16.008,1.887-25.404,2.648-40.973  c-19.35-11.522-36.573-29.083-61.905-27.324c-25.332,1.729-81.42,34.068-81.244,7.682c0.352-45.826-3.225-74.764-19.586-113.642  c-2.433-5.805-5.131-11.845-8.179-18.178c-2.61-5.453,9.089-11.874,7.857-17.797c-0.792-3.811-10.819-6.45-18.149-10.466  c-12.343-6.773-31.253-8.774-37.703-4.699c-6.186,3.9,23.953,15.688,30.228,29.116c1.847,4.985,2.139,16.717,2.463,25.308  C656.368,761.594,638.014,863.274,668.711,878.49z"/><path fill="#FFC72E" d="M846.582,837.775c-0.353,7.204-1.625,13.897-3.068,20.59c-1.669,7.768-3.572,15.544-4.535,24.147  c-27.854,1.639-125.269,13.935-166.826,0.775c-2.737-0.872-5.227-1.842-7.445-2.94c-28.554-14.16-20.372-104.725-20.673-158.095  c-0.038-6.475,4.813-11.927,11.243-12.686l18.943-2.226c0.308-0.037,0.609-0.06,0.918-0.075c5.527-0.248,10.656,3.106,12.528,8.377  c12.288,34.532,10.13,63.567,9.806,105.62c-0.12,18.62,27.298,7.362,52.355-1.481c10.453-3.692,20.492-6.964,27.945-7.475  C803.108,810.545,827.232,826.247,846.582,837.775z"/><path fill="#F0DCC0" d="M843.513,858.365c-1.669,7.768-3.572,15.544-4.535,24.147c-27.854,1.639-125.269,13.935-166.826,0.775  c30.035,1.436,76.091,3.384,96.686-7.212c15.004-7.719,30.722-3.073,44.608,2.378c14.854,5.831,16.565-40.07,29.235-43.543  L843.513,858.365z"/><path fill="#326AB3" d="M949.797,835.76c-0.414,0.594-0.835,1.188-1.263,1.767c-12.965,17.755-30.231,28.607-47.226,35.202  c-3.452,1.338-6.896,2.504-10.287,3.519c-27.907,8.325-52.49,6.294-52.49,6.294c-2.271-6.084-3.467-12.363-3.444-18.875  c0.03-9.122,2.429-18.68,7.595-28.757c0,0,11.498-20.184,25.531-40.27c4.49-6.422,9.235-12.837,13.942-18.575  c7.761-9.46,14.55-18.595,20.927-21.147c16.613-6.649,30.525-4.947,30.525-4.947l19.778,7.693  C964.935,784.45,963.995,815.38,949.797,835.76z"/><path fill="#265A9E" d="M948.534,837.527c-12.965,17.755-30.231,28.607-47.226,35.202c-3.452,1.338-6.896,2.504-10.287,3.519  c0.316-4.204,0.714-9.633,1.534-15.273c1.376-9.423,17.266-65.131,17.266-65.131l17.642-1.812c0,0,4.918,27.9,0.797,36.924  c-4.121,9.024-8.438,20.402-2.354,21.387C930.132,853.018,940.705,843.19,948.534,837.527z"/><path fill="#265A9E" d="M901.308,872.728c-31.855,12.37-62.778,9.814-62.778,9.814c-2.271-6.084-3.467-12.363-3.444-18.875  c17.815,1.323,21.62,8.392,29.855,8.091c8.242-0.293,7.362-11.182,4.565-23.094c-2.797-11.919,2.647-27.072-0.737-42.503  c-0.978-4.474-1.008-8.317-0.557-11.521c4.49-6.422,9.235-12.837,13.942-18.575c5.445,5.144,10.34,9.851,10.596,10.363  C893.276,787.473,899.886,857.598,901.308,872.728z"/><path fill="#FFD8D9" d="M933.587,749.976c0.634,25.935,17.034,27.686,19.812,7.689l2.366-8.169l4.657-16.116l0.629-2.219  l-13.787-5.803l-3.659,6.543l-4.437,8.058L933.587,749.976z"/><path fill="#F5B7B9" d="M939.168,739.959c1.738,1.959,3.845,4.103,5.656,5.471c3.88,2.92,10.904,4.066,10.904,4.066h0.037  l4.657-16.116l-6.061-2.625l-10.756,1.146L939.168,739.959z"/><path fill="#FFD8D9" d="M972.232,710.707c0,0,4.99,35.992-13.259,35.598c-18.248-0.394-22.366-19.846-22.366-19.846  s-7.675-5.36-4.787-10.611c2.888-5.252,7.055,1.443,7.055,1.443s17.037-3.675,20.778-15.885  C961.631,706.598,969.664,702.226,972.232,710.707z"/><path fill="#1E2030" d="M972.665,715.325c-0.933-0.791-6.25-0.593-6.841-8.668c0,0-2.855,7.191-9.551,9.747  c0,0,1.162-6.377-1.104-8.346c0,0-1.949,6.673-6.872,11.695c-4.924,5.022-5.239,12.997-4.982,14.868c0,0-6.52-12.179-3.772-22.385  c2.748-10.207,8.459-12.176,8.459-12.176s16.663-4.856,22.888,4.483C974.635,710.16,972.665,715.325,972.665,715.325z"/><path fill="#1E2030" d="M476.397,828.306c0.927-1.098,2.933-3.152,5.611-5.769c0.174-0.17,0.341-0.334,0.521-0.509  c0.127-0.124,0.263-0.254,0.393-0.381c2.584-2.507,5.703-5.459,9.082-8.587c0.08-0.074,0.159-0.148,0.239-0.222  c1.766-1.634,3.595-3.308,5.455-4.991c0.196-0.178,0.391-0.354,0.588-0.532c1.8-1.626,3.616-3.249,5.421-4.842  c0.23-0.203,0.459-0.405,0.689-0.607c0.765-0.672,1.524-1.337,2.278-1.993c0.148-0.127,0.296-0.258,0.443-0.385  c0.851-0.737,1.689-1.457,2.518-2.165c0.243-0.208,0.481-0.409,0.721-0.613c0.655-0.556,1.3-1.099,1.934-1.63  c0.205-0.172,0.414-0.348,0.617-0.517c0.78-0.649,1.54-1.274,2.281-1.876c0.203-0.165,0.398-0.321,0.597-0.482  c0.583-0.471,1.151-0.923,1.702-1.357c0.194-0.153,0.391-0.309,0.581-0.457c0.681-0.531,1.336-1.032,1.956-1.496  c0.134-0.1,0.256-0.187,0.387-0.284c0.504-0.372,0.984-0.718,1.441-1.038c0.156-0.109,0.313-0.22,0.461-0.322  c0.536-0.367,1.041-0.701,1.496-0.981c0.063-0.038,0.114-0.065,0.174-0.101c0.394-0.237,0.746-0.431,1.069-0.592  c0.099-0.05,0.197-0.097,0.289-0.138c0.343-0.157,0.656-0.28,0.895-0.327c1.536-0.298,3.306,1.274,5.079,3.766l0.008,0.008  c5.053,7.104,9.753,20.518,9.753,20.518c-2.88,1.812-4.624-0.322-10.021,3.299c-1.948,1.308-2.88,3.036-3.278,4.709  c-0.663,2.803-3.178,4.992-6.065,5.479c-1.061,0.179-2.226,0.432-3.477,0.769c-0.563,0.148-1.14,0.314-1.735,0.501  c-1.076,0.332-2.207,0.723-3.375,1.176c-0.542,0.21-1.093,0.432-1.649,0.672c-1.319,0.557-2.675,1.192-4.063,1.91  c-0.587,0.307-1.184,0.627-1.783,0.967c-1.515,0.849-3.053,1.801-4.601,2.861c-0.363,0.248-0.731,0.503-1.096,0.766  c-0.599,0.429-1.189,0.836-1.768,1.219c-1.276,0.844-2.502,1.579-3.676,2.21l-0.003,0.003c-0.367,0.199-0.73,0.391-1.091,0.57  c0,0,0,0-0.001-0.003c-10.919,5.457-17.144,1.923-18.312-2.555C474.587,832.039,475.013,829.946,476.397,828.306z"/><path fill="#1E2030" d="M618.82,650.929c1.384,0.085,4.129,0.453,7.7,1.018c0.231,0.036,0.455,0.071,0.694,0.11  c0.169,0.027,0.349,0.057,0.521,0.086c3.431,0.554,7.513,1.267,11.883,2.079c0.103,0.019,0.206,0.038,0.31,0.057  c2.282,0.425,4.632,0.876,7.008,1.345c0.251,0.049,0.5,0.099,0.751,0.148c2.296,0.456,4.6,0.926,6.873,1.405  c0.29,0.061,0.578,0.122,0.867,0.184c0.962,0.204,1.914,0.408,2.857,0.615c0.184,0.04,0.37,0.08,0.552,0.12  c1.062,0.234,2.102,0.467,3.127,0.7c0.301,0.069,0.594,0.137,0.89,0.205c0.808,0.187,1.6,0.372,2.377,0.558  c0.252,0.06,0.508,0.12,0.756,0.179c0.952,0.23,1.874,0.458,2.767,0.684c0.245,0.062,0.478,0.123,0.718,0.185  c0.7,0.18,1.376,0.359,2.032,0.535c0.23,0.062,0.465,0.125,0.688,0.187c0.804,0.221,1.569,0.438,2.286,0.652  c0.154,0.046,0.293,0.09,0.442,0.135c0.579,0.176,1.123,0.348,1.634,0.517c0.174,0.058,0.35,0.116,0.515,0.172  c0.592,0.203,1.143,0.402,1.621,0.592c0.066,0.027,0.115,0.051,0.178,0.076c0.41,0.168,0.764,0.329,1.074,0.486  c0.096,0.048,0.189,0.096,0.274,0.144c0.319,0.176,0.594,0.346,0.768,0.504c1.116,1.018,0.919,3.294,0.012,6.103l-0.002,0.01  c-2.585,8.007-11.336,18.487-11.336,18.487c-3.2-0.319-1.34-2.873-7.253-4.965c-2.136-0.753-4.011-0.479-5.535,0.179  c-2.552,1.102-5.696,0.418-7.738-1.536c-0.75-0.719-1.618-1.474-2.6-2.248c-0.439-0.35-0.901-0.7-1.389-1.053  c-0.876-0.642-1.832-1.292-2.856-1.935c-0.474-0.299-0.964-0.598-1.47-0.889c-1.191-0.7-2.464-1.384-3.82-2.044  c-0.576-0.279-1.168-0.556-1.776-0.824c-1.53-0.683-3.154-1.324-4.867-1.911c-0.402-0.139-0.81-0.276-1.224-0.407  c-0.678-0.217-1.333-0.439-1.963-0.665c-1.389-0.501-2.664-1.027-3.83-1.571l-0.003-0.002c-0.366-0.169-0.723-0.34-1.069-0.516  c0,0,0,0,0-0.003c-10.517-5.305-11.371-12.161-8.578-15.647C614.888,651.68,616.753,650.802,618.82,650.929z"/><path fill="#FFD8D9" d="M1002.739,885.227c-5.016,0.684-8.701-7.889-10.769-5.813c-1.346,1.339-5.166,4.693-11.28,6.219  c-0.887,0.226-1.82,0.414-2.805,0.549c-1.902,0.256-3.986,0.323-6.249,0.12c-2.542-0.226-3.903-0.955-4.474-1.94  c-2.061-3.474,5.512-10.197,5.512-10.197s1.993-1.023,4.836-2.196c5.294-2.188,13.544-4.918,17.334-2.58  C1000.678,872.984,1007.747,884.535,1002.739,885.227z"/><path fill="#477EC7" d="M977.915,888.739c0,1.053-80.623,7.264-92.286-2.158c-1.602-1.294-2.971-3.061-4.129-5.211v-0.008  c-13.221-24.508,0.399-99.175,0.399-99.175c2.369-16.025,28.907-41.383,40.623-23.899c10.047,14.98,3.82,49.384-0.707,74.381  c-1.015,5.565-1.933,10.656-2.579,14.972c-1.151,7.723-1.391,12.935,0.406,13.799c0.797,0.399,9.851,1.369,20.771,2.542  c11.047,1.181,24.019,2.564,32.299,3.737c2.354,0.331,4.211,2.038,4.798,4.249c0.128,0.459,0.196,0.94,0.203,1.436  c0.053,3.467,0.113,8.047,0.158,11.31c0.008,0.526,0.008,1.015,0.015,1.466C977.908,887.573,977.915,888.528,977.915,888.739z"/><path fill="#3B70B8" d="M977.885,886.182c0.023,1.391,0.03,2.346,0.03,2.557c0,1.053-80.623,7.264-92.286-2.158  c-1.602-1.294-2.971-3.061-4.129-5.211v-0.008c0,0,13.604,8.174,27.877,5.618c14.273-2.564,13.687-0.865,20.748,0.496  c7.061,1.354,28.915-1.729,36.675-3.061c0.12-0.023,0.241-0.038,0.361-0.053c3.805-0.602,7.723-0.346,10.709,0.354  c1.083,0.248,2.038,0.564,2.82,0.917C979.802,885.858,978.87,886.046,977.885,886.182z"/><polygon fill="#FFF" points="1059.639 844.444 1055.275 841.32 1078.049 839.79 1083.092 843.041"/><path fill="#F58C4F" d="M673.695,768.966c0,0,0.03-0.383,0.692-1.023C673.943,768.583,673.695,768.966,673.695,768.966z"/><path fill="#F0DCC0" d="M749.828,819.779c0,0-28.11,20.296-37.721,18.431c-9.385-1.813-21.344,1.529-21.735,1.672  c0.308-0.241,7.488-6.544,4.022-11.672c-3.572-5.294-3.824-13.341-1.666-30.803c2.158-17.454,2.745-36.878-8.046-33.938  c-6.61,1.805-9.25,3.467-10.295,4.474c2.113-3.038,8.685-11.882,14.611-13.499c7.182-1.948,3.534-11.769-0.391-25.109  c-3.158-10.739-11.212-18.492-13.468-22.071c5.527-0.248,10.656,3.106,12.528,8.377c12.288,34.532,10.13,63.567,9.806,105.62  C697.353,839.881,724.771,828.623,749.828,819.779z"/><path fill="#3B70B8" d="M940.412,863.983c-0.481,0.752-1.151,1.429-2.053,1.895c-3.407,1.745-13.83-1.572-18.409-0.79  c-4.58,0.79-9.934-1.76-9.934-1.76c3.73-0.293,4.903-5.497,5.294-14.717c0.181-4.211,3.234-10.43,6.505-15.943  c-1.015,5.565-1.933,10.656-2.579,14.972c-1.151,7.723-1.391,12.935,0.406,13.799C920.439,861.839,929.493,862.809,940.412,863.983z  "/><path fill="#C7C8E0" d="M1020.971,890.273h-53.863c-0.646,0-1.17-0.524-1.17-1.17v-5.392c0-0.646,0.524-1.17,1.17-1.17h53.863  c0.646,0,1.17,0.524,1.17,1.17v5.392C1022.142,889.749,1021.618,890.273,1020.971,890.273z"/><path fill="#C7C8E0" d="M1117.112,798.459h-87.769c-3.356,0-6.315,2.199-7.282,5.413l-23.062,76.604  c-1.469,4.881,2.185,9.798,7.282,9.798h87.769c3.356,0,6.315-2.199,7.283-5.413l23.062-76.604  C1125.864,803.375,1122.21,798.459,1117.112,798.459z"/><path fill="#BABBD1" d="M1118.229,798.548c-0.053,0.423-0.129,0.847-0.256,1.273l-23.062,76.604  c-0.968,3.214-3.927,5.413-7.283,5.413H999.86c-0.382,0-0.753-0.036-1.117-0.089c-0.552,4.427,2.886,8.525,7.539,8.525h87.769  c3.356,0,6.315-2.199,7.283-5.413l23.062-76.604C1125.754,803.741,1122.725,799.204,1118.229,798.548z"/><path fill="#D0D1EB" d="M1056.505,839.883c0-3.984,3.23-7.214,7.214-7.214c3.984,0,7.214,3.23,7.214,7.214s-3.23,7.214-7.214,7.214  C1059.735,847.096,1056.505,843.867,1056.505,839.883z"/><path fill="#D94559" d="M752.927,100.076c0.448,0.724,0.591,1.596,0.381,2.455c-0.277,1.133-1.112,2.006-2.232,2.333l-10.816,3.155  c-1.121,0.327-2.293,0.04-3.136-0.767c-0.842-0.807-1.181-1.966-0.904-3.099l2.676-10.944c0.277-1.134,1.112-2.006,2.232-2.333  c1.12-0.327,2.293-0.04,3.136,0.767l8.14,7.79C752.609,99.628,752.784,99.844,752.927,100.076z M738.771,105.273  c0.04,0.064,0.083,0.111,0.113,0.139c0.086,0.082,0.322,0.262,0.664,0.162l10.816-3.154c0.342-0.1,0.444-0.379,0.472-0.494  c0.028-0.115,0.066-0.408-0.191-0.655l-8.14-7.79c-0.257-0.246-0.55-0.196-0.663-0.162c-0.114,0.033-0.388,0.148-0.472,0.493  l-2.676,10.944C738.638,104.981,738.699,105.155,738.771,105.273z"/><path fill="#FAA61E" d="M1008.518,239.264l3.979-3.979c0.903-0.903,0.903-2.367,0-3.27c-0.903-0.903-2.368-0.903-3.27,0  l-3.979,3.979l-3.979-3.979c-0.902-0.903-2.368-0.903-3.27,0c-0.903,0.903-0.903,2.367,0,3.27l3.979,3.979l-3.971,3.971  c-0.903,0.903-0.903,2.368,0,3.27c0.451,0.452,1.043,0.678,1.635,0.678c0.592,0,1.184-0.226,1.635-0.678l3.972-3.972l3.971,3.972  c0.451,0.452,1.043,0.678,1.635,0.678c0.592,0,1.184-0.226,1.635-0.678c0.904-0.903,0.904-2.367,0-3.27L1008.518,239.264z"/><path fill="#FAA61E" d="M177.534,780.883l3.979-3.979c0.903-0.903,0.903-2.367,0-3.27c-0.903-0.903-2.368-0.903-3.27,0l-3.979,3.979  l-3.979-3.979c-0.902-0.903-2.368-0.903-3.27,0c-0.903,0.903-0.903,2.367,0,3.27l3.979,3.979l-3.971,3.971  c-0.903,0.903-0.903,2.368,0,3.27c0.451,0.452,1.043,0.678,1.635,0.678c0.592,0,1.184-0.226,1.635-0.678l3.972-3.972l3.972,3.972  c0.451,0.452,1.043,0.678,1.635,0.678c0.592,0,1.184-0.226,1.635-0.678c0.904-0.903,0.904-2.367,0-3.27L177.534,780.883z"/><path fill="#4E80C2" d="M1251.452,486.337c-5.011,0-9.087-4.077-9.087-9.087c0-5.011,4.077-9.087,9.087-9.087  c5.011,0,9.087,4.077,9.087,9.087C1260.539,482.26,1256.463,486.337,1251.452,486.337z M1251.452,471.006  c-3.443,0-6.244,2.801-6.244,6.244c0,3.443,2.801,6.244,6.244,6.244s6.244-2.801,6.244-6.244  C1257.695,473.807,1254.894,471.006,1251.452,471.006z"/></svg>